<?xml version="1.0" standalone="no"?>
<!DOCTYPE svg PUBLIC "-//W3C//DTD SVG 20010904//EN"
 "http://www.w3.org/TR/2001/REC-SVG-20010904/DTD/svg10.dtd">
<svg version="1.0" xmlns="http://www.w3.org/2000/svg"
 width="1024.000000pt" height="1024.000000pt" viewBox="0 0 1024.000000 1024.000000"
 preserveAspectRatio="xMidYMid meet">

<g transform="translate(0.000000,1024.000000) scale(0.100000,-0.100000)"
fill="#000000" stroke="none">
<path d="M3895 9666 c-83 -26 -206 -124 -250 -201 -13 -22 -29 -62 -36 -88 -8
-33 -21 -55 -40 -69 -40 -30 -53 -68 -45 -138 4 -33 3 -60 -1 -60 -21 0 -88
51 -124 95 -85 103 -145 124 -233 81 -76 -37 -109 -84 -114 -161 -3 -44 2 -74
17 -112 11 -29 18 -53 16 -53 -3 0 -22 11 -43 25 -82 54 -221 77 -320 51 -85
-22 -136 -49 -199 -108 -56 -54 -109 -147 -119 -209 -4 -23 -18 -48 -35 -65
-16 -15 -32 -43 -35 -61 -8 -43 -18 -33 -44 41 -25 74 -60 121 -110 146 -72
37 -148 21 -206 -41 -79 -85 -70 -184 25 -291 23 -26 67 -89 97 -139 52 -87
126 -190 194 -271 l31 -36 -75 -114 c-352 -538 -537 -1170 -540 -1848 -1 -113
2 -238 6 -277 14 -132 57 -397 82 -498 101 -410 311 -837 582 -1181 188 -238
545 -532 889 -731 185 -107 455 -224 665 -287 145 -44 432 -99 586 -113 131
-12 560 -8 704 6 562 55 1142 286 1570 626 201 159 475 446 650 680 142 190
280 427 361 616 105 250 162 457 206 754 22 153 25 664 5 825 -21 157 -87 482
-123 595 -198 631 -596 1199 -1129 1611 -455 352 -1020 557 -1600 581 l-154 6
-48 52 c-46 50 -94 75 -147 75 -40 0 -112 -43 -164 -96 -33 -35 -67 -59 -96
-69 -25 -8 -45 -15 -46 -15 -1 0 -10 20 -19 43 -9 24 -28 54 -41 67 -14 13
-25 31 -25 39 0 25 -54 133 -86 170 -48 57 -141 119 -211 141 -73 23 -167 25
-228 6z m241 -126 c53 -26 128 -98 154 -150 28 -55 53 -175 48 -230 -9 -94
-77 -193 -162 -238 -46 -24 -61 -27 -156 -27 -135 0 -199 26 -251 101 -40 58
-78 149 -79 186 -1 86 68 244 132 304 87 82 211 103 314 54z m729 -305 c39
-39 34 -88 -14 -136 -21 -22 -43 -39 -49 -39 -16 0 -92 91 -92 111 0 10 15 34
34 53 41 44 85 48 121 11z m-1584 -55 c23 -13 49 -61 49 -93 0 -14 -16 -43
-38 -67 -34 -39 -40 -42 -60 -31 -13 7 -32 27 -42 44 -53 87 10 190 91 147z
m1872 -100 c531 -44 951 -182 1337 -437 452 -300 776 -660 1028 -1144 104
-198 165 -358 262 -678 60 -198 90 -445 92 -752 1 -225 -9 -332 -58 -594 -41
-218 -52 -247 -92 -242 -31 4 -42 28 -72 167 -21 94 -75 292 -120 441 -19 60
-36 99 -46 103 -9 4 -38 3 -65 0 l-48 -6 -39 85 c-50 106 -108 193 -165 243
-32 29 -46 49 -51 79 -23 124 -136 215 -267 215 -43 0 -60 8 -152 70 -125 83
-209 178 -348 391 -13 20 -37 53 -53 74 l-30 37 31 56 c78 142 67 293 -32 466
l-45 79 49 46 c86 81 104 209 44 310 -42 70 -40 77 31 92 51 11 57 14 36 20
-14 4 -51 7 -82 8 -54 1 -58 -1 -58 -21 -1 -23 -1 -23 -14 2 -7 14 -16 50 -19
80 -8 80 -33 147 -82 215 -168 235 -461 327 -742 232 -187 -64 -343 -249 -373
-444 l-12 -73 -71 -2 -72 -2 65 -3 c89 -5 102 -11 65 -30 -46 -24 -66 -45 -85
-88 -56 -128 -23 -244 94 -328 18 -13 17 -17 -22 -88 -42 -76 -72 -172 -72
-230 -1 -31 -2 -32 -13 -13 -25 43 -79 102 -128 139 -34 26 -60 57 -79 95 -16
31 -35 62 -44 69 -23 19 -20 28 14 34 36 8 102 72 130 127 47 92 35 184 -34
255 -23 25 -49 45 -58 45 -18 0 -28 57 -28 161 0 59 4 75 30 116 42 65 63 143
64 231 1 69 -1 75 -27 96 l-28 23 57 43 c53 40 201 183 232 223 15 20 11 20
165 7z m-2177 -191 c48 -30 67 -50 104 -111 105 -172 89 -346 -44 -486 -32
-34 -56 -47 -110 -64 -183 -56 -359 34 -416 213 -23 72 -23 72 -7 176 18 109
38 158 85 209 60 64 102 81 102 40 0 -34 70 -119 115 -141 41 -19 185 -32 229
-21 30 7 32 24 11 66 -15 29 -18 30 -86 30 -43 0 -81 6 -99 15 -26 13 -90 92
-90 110 0 4 33 6 74 3 63 -3 81 -8 132 -39z m279 -60 c37 -33 45 -63 19 -73
-21 -8 -31 -1 -48 32 -38 76 -28 91 29 41z m935 -155 c88 -35 103 -38 195 -38
82 -1 111 3 163 23 34 13 66 21 69 17 13 -12 -17 -120 -45 -166 -34 -55 -99
-101 -189 -132 -60 -20 -86 -23 -213 -22 -125 0 -153 3 -201 22 -98 39 -179
128 -179 198 0 34 32 87 67 109 43 29 74 35 158 31 64 -3 98 -11 175 -42z
m-784 -39 c16 -66 -41 -111 -84 -65 l-19 21 -6 -21 c-4 -14 -12 -21 -24 -18
-35 6 -28 88 7 88 11 0 20 5 20 10 0 6 12 23 26 37 l27 27 23 -28 c13 -15 27
-38 30 -51z m-1242 26 c46 -48 35 -117 -23 -141 -44 -18 -76 -6 -95 34 -23 48
-20 76 11 108 35 37 71 36 107 -1z m3571 -46 c125 -33 266 -143 314 -245 30
-65 44 -196 20 -188 -17 6 -33 35 -59 108 -23 64 -97 154 -167 202 -25 17 -75
41 -111 54 -66 23 -82 35 -82 67 0 21 10 21 85 2z m-205 -1 c0 -13 -168 -69
-179 -59 -8 8 123 64 152 65 15 0 27 -2 27 -6z m-3122 -67 c2 -18 -1 -27 -11
-27 -18 0 -29 24 -20 45 8 23 28 12 31 -18z m1292 -50 c0 -12 15 -49 33 -82
59 -105 168 -166 329 -184 128 -14 333 15 425 61 24 12 46 18 50 14 4 -3 2
-55 -5 -114 -7 -59 -12 -146 -12 -192 -1 -103 -12 -155 -51 -238 -40 -82 -135
-180 -209 -214 -239 -110 -473 -11 -604 254 -25 53 -46 105 -46 117 0 11 -5
21 -10 21 -6 0 -10 -6 -8 -12 4 -21 -12 -68 -23 -68 -24 0 -70 33 -84 60 -21
41 -19 83 7 115 20 25 26 27 73 22 82 -8 80 -11 77 177 -3 159 4 221 30 273
13 26 28 21 28 -10z m-1405 -57 c16 -17 29 -42 30 -60 2 -33 -6 -38 -25 -15
-7 9 -25 24 -40 35 -24 17 -30 17 -53 5 -29 -15 -53 0 -25 16 8 4 26 17 39 28
32 27 40 26 74 -9z m1029 -28 c2 -4 -2 -18 -9 -32 -12 -22 -14 -23 -20 -7 -9
21 -35 23 -35 2 0 -8 -4 -15 -10 -15 -5 0 -10 -5 -10 -10 0 -6 -12 -23 -27
-38 l-26 -27 18 30 c54 88 68 105 91 105 12 0 25 -3 28 -8z m196 -111 l0 -98
-30 -6 c-39 -8 -109 -73 -131 -122 -26 -57 -24 -138 5 -201 26 -57 58 -85 120
-109 l42 -16 -32 -36 c-18 -19 -46 -61 -63 -93 -26 -48 -40 -62 -79 -81 -26
-12 -60 -31 -76 -42 l-29 -20 7 34 c4 19 10 153 13 299 l5 265 58 62 c32 34
86 107 120 163 34 55 64 100 66 100 2 0 4 -44 4 -99z m2172 -124 c85 -72 166
-106 362 -151 47 -11 73 -13 80 -6 5 5 22 10 37 10 62 0 81 -99 30 -151 -18
-18 -40 -29 -57 -29 l-27 0 7 68 c6 63 6 66 -9 45 -9 -13 -22 -23 -29 -23 -8
0 -18 -22 -25 -57 -17 -90 -62 -175 -128 -240 -69 -69 -147 -109 -251 -130
-68 -14 -83 -14 -155 0 -146 29 -253 114 -330 264 -53 104 -72 125 -82 94 -12
-39 -74 -21 -100 29 -22 42 -19 85 8 116 21 24 26 25 47 14 38 -20 120 -6 225
41 125 54 202 111 251 186 l39 59 27 -47 c15 -26 51 -67 80 -92z m-2563 -103
c10 -27 15 -108 19 -261 l4 -223 -39 0 -40 0 -5 68 c-6 95 6 434 16 450 13 21
30 8 45 -34z m1516 -10 c21 -8 45 -56 45 -89 0 -55 -49 -115 -93 -115 -28 0
-29 2 -23 33 4 17 10 57 13 87 9 82 20 98 58 84z m-2267 -607 c-36 -121 -10
-221 102 -377 59 -83 76 -98 164 -153 147 -91 358 -108 538 -44 90 31 101 56
93 202 -7 140 -8 154 -17 149 -4 -3 -10 7 -14 22 -6 24 -1 33 32 61 36 31 134
89 134 79 0 -2 -7 -40 -15 -83 -19 -97 -19 -194 -1 -253 10 -36 14 -193 15
-750 1 -387 5 -708 7 -712 3 -4 -19 -8 -48 -8 l-53 0 3 397 c3 426 1 448 -46
460 -13 3 -77 3 -141 0 -267 -14 -490 -117 -636 -294 -70 -84 -156 -252 -189
-367 -45 -153 -53 -371 -20 -536 4 -23 2 -25 -38 -25 -24 -1 -94 -3 -157 -5
-99 -3 -114 -1 -123 14 -18 33 -77 363 -88 502 -16 184 -8 602 14 739 38 233
94 452 178 685 44 122 134 328 172 395 13 22 38 67 56 100 18 33 44 78 59 99
l26 39 7 -134 c6 -119 5 -141 -14 -202z m1227 187 c-6 -2 22 -38 62 -79 75
-77 79 -85 67 -157 -7 -41 -23 -48 -49 -22 -8 9 -22 13 -30 10 -10 -3 -12 0
-8 11 4 9 -1 19 -10 25 -10 5 -17 18 -17 28 0 11 -7 20 -15 20 -18 0 -18 5 -4
32 13 24 3 37 -33 40 -15 1 -24 6 -22 10 3 5 10 5 16 2 6 -4 9 3 7 17 -4 29
17 69 34 68 7 0 8 -2 2 -5z m956 -35 c19 -38 42 -177 30 -183 -3 -1 -47 0 -98
2 -87 4 -92 5 -98 29 -4 16 0 32 12 47 83 106 117 146 124 146 5 0 18 -18 30
-41z m-1865 -153 c52 -52 41 -121 -30 -184 -69 -61 -157 -36 -175 50 -12 54 4
109 38 140 26 23 41 28 82 28 45 0 55 -4 85 -34z m431 -17 c-10 -76 -77 -119
-185 -119 -66 0 -84 17 -81 79 l2 46 71 2 c39 1 91 8 116 16 77 25 83 23 77
-24z m1654 -81 c24 -47 24 -64 -1 -95 -30 -39 -25 -64 30 -134 28 -35 67 -86
86 -112 35 -46 37 -47 60 -32 31 20 31 20 50 -17 21 -41 15 -130 -12 -184 -21
-40 -87 -94 -114 -93 -10 0 -11 2 -2 6 19 8 15 53 -5 53 -27 0 -128 94 -163
151 -17 28 -35 47 -40 44 -6 -4 -4 -15 4 -28 8 -12 17 -33 21 -47 4 -14 15
-34 25 -45 10 -11 21 -30 25 -42 6 -20 3 -23 -25 -23 -18 0 -33 6 -36 15 -4 8
-12 15 -19 15 -20 0 -58 57 -49 72 5 7 9 19 10 28 1 8 19 53 39 100 72 163 80
195 66 259 -18 78 -25 147 -17 167 6 15 8 15 27 -2 12 -11 30 -36 40 -56z
m819 42 c36 0 94 5 129 10 35 6 66 9 69 6 3 -3 -3 -27 -13 -53 -22 -56 -107
-146 -149 -157 -42 -10 -132 37 -173 92 -31 41 -57 107 -48 122 3 4 31 1 62
-6 32 -8 87 -14 123 -14z m-1625 -6 c14 -9 25 -12 25 -6 0 6 24 10 59 9 54 -2
58 -4 49 -21 -10 -18 -38 -19 -83 -1 -11 5 -17 5 -13 0 6 -7 -94 -136 -111
-143 -4 -1 -17 8 -30 21 -23 25 -26 41 -23 121 l2 49 50 -6 c27 -3 61 -13 75
-23z m295 -55 c0 -39 -18 -99 -29 -99 -10 0 -57 51 -68 75 -15 30 -5 45 40 65
48 22 57 15 57 -41z m1767 -72 c38 -57 49 -117 47 -273 -3 -175 -54 -323 -121
-345 -59 -19 -62 -1 -15 98 64 136 78 226 62 377 -8 84 -13 95 -56 158 -29 43
-44 74 -40 84 5 14 13 11 49 -18 23 -19 56 -56 74 -81z m-1488 35 c40 -22 71
-73 71 -119 0 -72 -103 -141 -170 -113 -40 17 -78 62 -86 105 -11 61 61 145
126 145 14 0 41 -8 59 -18z m-843 -58 c30 -31 34 -42 34 -89 0 -62 -13 -79
-68 -95 -108 -30 -182 7 -182 90 0 84 48 129 139 130 37 0 48 -5 77 -36z
m-846 -23 c37 -24 108 -40 183 -41 53 0 71 -4 87 -20 26 -26 26 -85 -1 -129
-22 -36 -27 -36 -114 -11 -22 7 -62 15 -90 20 -27 4 -83 20 -123 34 -54 19
-84 24 -113 20 -59 -10 -97 29 -41 42 56 14 101 44 123 83 24 43 25 43 89 2z
m1264 -51 c66 -84 76 -92 102 -87 13 2 23 1 22 -2 0 -3 1 -10 2 -16 5 -19 7
-41 9 -111 1 -66 4 -74 34 -107 20 -23 45 -38 67 -42 19 -3 37 -10 38 -16 2
-5 10 -9 18 -9 8 0 14 -4 14 -10 0 -5 7 -10 15 -10 8 0 15 6 15 13 0 12 52 37
77 37 6 0 18 -51 27 -112 21 -154 29 -868 8 -793 -17 57 -85 127 -149 151 -61
24 -157 14 -225 -23 -76 -42 -154 -134 -219 -259 -30 -60 -60 -107 -65 -105
-19 9 -61 183 -68 279 -6 84 -15 156 -41 337 -3 22 -10 60 -15 85 -5 25 -12
123 -16 218 -6 156 -5 172 10 172 9 0 16 8 16 20 0 11 -5 20 -10 20 -7 0 -7 6
-1 18 46 86 55 120 57 210 1 51 4 95 7 98 2 2 10 -9 17 -26 18 -42 55 -41 78
3 17 32 108 127 122 127 4 0 28 -27 54 -60z m-400 -166 c4 -9 -1 -27 -9 -40
-22 -34 -83 -33 -122 1 l-28 24 30 1 c17 1 44 7 60 15 41 18 62 18 69 -1z
m2508 -43 c112 -185 366 -452 459 -483 14 -5 -18 -68 -34 -68 -40 0 -210 123
-295 215 -123 131 -182 242 -182 341 0 49 2 55 15 44 8 -7 25 -29 37 -49z m18
-391 c56 -55 148 -134 204 -176 55 -41 114 -85 130 -97 l29 -22 -31 -33 c-52
-55 -88 -118 -123 -212 l-34 -90 -47 0 c-26 0 -50 -5 -53 -10 -4 -6 -9 -35
-12 -66 -3 -30 -10 -57 -14 -60 -10 -6 -25 50 -34 126 -4 30 -34 185 -66 343
-50 242 -71 397 -55 397 2 0 49 -45 106 -100z m-1173 3 c-11 -145 -11 -147
-72 -172 -81 -34 -177 -132 -225 -232 -22 -46 -42 -104 -46 -135 -5 -43 -10
-54 -23 -52 -14 3 -16 35 -19 300 l-2 297 37 -16 c61 -25 165 -14 240 26 34
18 70 42 79 52 32 35 37 23 31 -68z m966 -130 c9 -38 24 -102 31 -143 8 -41
26 -127 40 -190 14 -63 35 -170 46 -238 11 -67 29 -166 40 -218 27 -130 26
-213 -4 -294 -14 -36 -26 -58 -29 -50 -3 8 -13 62 -22 120 -10 58 -28 148 -40
200 -13 52 -30 142 -39 200 -9 58 -27 159 -41 225 -14 66 -38 188 -55 271 -16
82 -32 158 -36 167 -5 15 1 17 43 17 l49 0 17 -67z m909 -26 c25 -15 58 -79
58 -113 0 -36 -37 -99 -67 -115 -115 -62 -249 93 -166 192 48 56 117 71 175
36z m-3771 -89 c6 -18 14 -506 10 -573 l-6 -90 -36 65 c-121 220 -183 322
-226 378 -26 34 -56 78 -65 97 -16 30 -16 35 -2 49 18 18 99 43 198 61 67 12
125 18 127 13z m2162 -36 c97 -45 212 -160 192 -192 -20 -32 -203 -41 -292
-15 -73 22 -132 77 -148 140 -11 43 -11 52 3 68 40 45 149 45 245 -1z m-2537
-266 c36 -33 75 -77 86 -96 12 -19 59 -94 105 -167 75 -119 93 -153 78 -153
-2 0 -39 23 -81 51 -42 28 -117 69 -166 90 -50 21 -95 42 -102 47 -6 4 -42 21
-81 37 -38 15 -89 39 -111 53 l-41 25 29 51 c52 89 107 155 146 175 l37 19 18
-35 c10 -19 48 -63 83 -97z m4371 -3 c20 -40 34 -76 30 -79 -3 -3 -60 -8 -126
-11 l-121 -6 0 67 c0 64 1 66 25 66 16 0 42 15 68 39 l42 40 23 -22 c13 -12
39 -54 59 -94z m-2041 1 c95 -56 347 -87 401 -49 21 15 21 14 29 -73 15 -177
-34 -314 -137 -384 -152 -103 -342 -93 -467 26 -60 57 -89 102 -122 194 l-23
63 21 42 c11 23 23 58 27 77 5 25 24 52 65 91 47 45 58 61 53 79 -11 42 18 41
66 -2 25 -22 64 -51 87 -64z m1639 35 c33 -16 40 -35 30 -85 l-6 -34 -114 0
c-92 0 -115 3 -115 14 0 20 57 127 82 153 l21 22 36 -28 c20 -15 49 -34 66
-42z m-3198 -131 c3 6 9 12 15 12 6 0 7 -7 4 -16 -11 -28 5 -83 25 -89 10 -4
19 -11 19 -17 0 -14 -48 -1 -82 23 -25 18 -28 26 -28 79 0 37 5 60 13 63 9 4
8 8 -3 17 -11 9 -12 13 -2 17 6 2 13 14 13 26 1 12 6 -12 12 -53 5 -41 12 -69
14 -62z m866 -38 c30 -33 35 -74 12 -103 -13 -18 -14 -17 -29 10 -25 50 -98
68 -154 39 -31 -17 -95 -83 -137 -141 -35 -50 -86 -105 -97 -105 -16 0 -8 25
35 109 45 90 120 182 171 208 74 39 155 32 199 -17z m326 -39 c12 -21 18 -118
8 -127 -13 -13 -54 7 -65 31 -18 39 4 115 33 115 8 0 19 -9 24 -19z m938 -15
c9 -21 13 -44 9 -60 -8 -32 -40 -66 -62 -66 -15 0 -16 9 -10 71 3 39 9 75 12
80 11 19 35 7 51 -25z m1738 -153 c15 -71 42 -177 60 -238 17 -60 56 -205 85
-320 l53 -211 -25 -54 c-14 -30 -33 -77 -43 -104 -18 -51 -55 -76 -109 -76
-14 0 -82 -12 -151 -26 -70 -14 -129 -24 -131 -22 -2 2 -8 37 -15 78 -6 41
-27 143 -46 225 -19 83 -42 193 -53 245 -19 100 -58 431 -62 537 l-3 61 50 6
c28 3 84 8 126 12 l76 6 6 -64 c9 -98 11 -101 70 -95 27 4 52 9 55 12 6 6 -11
111 -23 138 -6 14 -2 17 22 17 l30 0 28 -127z m-4938 73 c68 -23 446 -187 441
-191 -2 -1 -128 0 -281 3 -277 5 -278 5 -273 26 2 11 10 58 16 104 7 45 15 82
19 82 4 0 39 -11 78 -24z m2072 -106 c0 -74 -4 -132 -10 -136 -16 -9 -39 16
-39 42 0 13 -6 24 -13 24 -8 0 -20 11 -27 25 -7 14 -18 25 -23 25 -5 0 11 22
37 50 25 27 51 61 58 75 6 14 13 25 15 25 1 0 3 -58 2 -130z m2299 25 c-2 -47
1 -86 6 -88 12 -4 13 -313 1 -357 -5 -19 -8 -119 -6 -222 l3 -187 -27 -25
c-32 -30 -80 -42 -99 -26 -11 8 -15 8 -18 -2 -4 -10 -8 -9 -20 2 -17 17 -17
14 14 225 11 77 28 201 38 276 15 116 73 437 85 477 3 6 9 12 15 12 8 0 10
-28 8 -85z m-2080 -108 c4 -21 -51 -47 -98 -47 -30 0 -30 1 -30 54 l0 53 62
-21 c40 -14 64 -28 66 -39z m-465 -64 c21 -15 52 -44 68 -65 33 -41 62 -52
169 -63 52 -5 88 -1 174 19 59 15 112 26 117 26 27 0 -7 -90 -57 -150 l-27
-32 -101 7 c-111 8 -190 27 -311 74 -131 50 -187 131 -139 200 20 27 50 23
107 -16z m-297 -128 c-15 -147 -84 -300 -180 -399 -116 -120 -224 -181 -351
-201 -40 -6 -38 -4 138 170 97 97 177 182 177 189 0 15 -45 66 -58 66 -27 0
-146 -96 -269 -218 -152 -149 -247 -235 -267 -240 -24 -5 -242 206 -378 367
-47 56 -118 32 -118 -40 0 -35 6 -45 52 -87 28 -26 84 -78 122 -115 l71 -69
-58 5 c-83 8 -228 80 -307 153 -97 90 -173 235 -205 390 -8 40 -15 76 -15 78
0 7 304 11 1064 14 l589 2 -7 -65z m1555 13 c24 -17 79 -62 121 -99 88 -78
158 -117 224 -126 26 -3 58 -16 72 -28 21 -18 24 -27 18 -58 -5 -27 -15 -41
-36 -52 -45 -23 -81 -18 -145 21 -33 19 -86 49 -118 66 -63 34 -86 62 -156
189 -39 71 -52 119 -33 119 5 0 29 -14 53 -32z m-223 -90 c-44 -82 -69 -99
-155 -105 -83 -6 -121 9 -157 65 -26 39 -51 110 -43 118 3 3 28 -2 56 -12 64
-20 249 -17 296 7 43 21 43 3 3 -73z m146 -80 c28 -81 46 -144 105 -383 77
-311 101 -413 101 -434 0 -23 -82 -62 -147 -68 -63 -7 -101 7 -142 53 -36 38
-49 37 -86 -12 -40 -52 -97 -77 -164 -72 -53 5 -57 7 -111 68 l-57 62 -34 -41
c-65 -75 -125 -89 -207 -47 -74 37 -76 44 -52 117 12 34 48 178 81 318 92 397
96 414 109 446 l12 30 19 -37 c22 -43 65 -78 135 -110 40 -18 66 -22 140 -22
80 1 97 4 136 27 48 28 102 84 120 123 16 34 24 30 42 -18z m-774 -114 c0 -22
-59 -307 -65 -313 -7 -7 -6 216 1 277 6 49 8 52 35 52 20 0 29 -5 29 -16z
m-180 -384 c0 -120 -4 -190 -10 -190 -6 0 -10 60 -10 159 0 143 6 221 16 221
2 0 4 -85 4 -190z m1884 -36 c7 -19 2 -18 -19 6 -16 17 -16 20 -3 15 9 -4 19
-13 22 -21z m-3045 -98 l1 -49 -30 38 c-36 45 -37 59 -8 80 21 14 23 14 30 -2
3 -10 7 -40 7 -67z m-376 49 c15 0 27 -1 27 -3 0 -7 -42 -47 -67 -65 l-28 -19
28 5 c31 5 34 0 10 -18 -13 -10 -26 -7 -69 14 -29 14 -53 29 -53 34 -1 10 22
4 32 -8 5 -6 7 -4 4 5 -2 8 -9 16 -15 16 -7 1 -16 2 -20 3 -4 0 -9 12 -10 26
l-2 26 68 -8 c37 -4 79 -8 95 -8z m-316 -51 c-3 -3 -12 -4 -19 -1 -8 3 -5 6 6
6 11 1 17 -2 13 -5z m150 0 c-3 -3 -12 -4 -19 -1 -8 3 -5 6 6 6 11 1 17 -2 13
-5z m3535 -130 c3 -34 14 -86 22 -115 22 -72 20 -82 -13 -102 l-29 -17 -6 30
c-3 17 -12 30 -20 30 -24 0 -73 181 -60 222 5 16 14 18 52 16 l47 -3 7 -61z
m1018 60 c0 -8 -40 -74 -45 -74 -2 0 4 18 13 40 15 35 32 53 32 34z m-4552
-78 c48 -25 120 -110 132 -157 21 -76 -6 -174 -63 -238 -31 -34 -115 -71 -163
-71 -68 0 -130 27 -173 76 -72 82 -87 145 -56 235 35 101 130 169 237 169 33
0 71 -6 86 -14z m903 -21 c126 -89 153 -227 69 -350 -52 -76 -166 -112 -256
-81 -103 35 -166 115 -166 213 0 64 20 128 53 175 58 80 215 103 300 43z
m1706 -243 c-6 -77 -38 -171 -72 -209 -22 -26 -23 -27 -48 -10 -33 22 -57 99
-57 184 0 53 3 63 18 63 9 1 42 9 72 20 92 32 94 31 87 -48z m-404 42 c32 -4
60 -10 62 -14 2 -4 0 -47 -6 -95 -11 -103 -39 -175 -67 -175 -20 0 -52 31 -72
69 -13 26 -39 159 -40 205 0 27 2 28 33 22 17 -3 58 -9 90 -12z m-400 -79 c9
-18 9 -19 -6 -6 -10 7 -17 23 -16 35 0 14 2 16 6 6 3 -8 10 -24 16 -35z m1404
-102 c-26 -50 -53 -67 -106 -66 -59 1 -80 12 -96 49 l-12 29 66 1 c42 1 82 9
111 21 51 23 61 14 37 -34z m-2716 -70 c13 -16 12 -17 -3 -4 -17 13 -22 21
-14 21 2 0 10 -8 17 -17z m1439 -8 c14 -19 14 -19 -2 -6 -10 7 -18 18 -18 24
0 6 1 8 3 6 1 -2 9 -13 17 -24z m215 -435 c25 -27 27 -32 15 -59 -6 -16 -21
-37 -31 -47 -19 -17 -21 -16 -54 16 -42 41 -43 55 -8 92 34 35 43 35 78 -2z
m-481 -10 c27 -33 26 -51 -7 -87 -26 -30 -33 -29 -68 6 -35 36 -36 41 -3 80
32 39 46 39 78 1z m232 5 c21 -32 12 -69 -22 -92 -26 -17 -27 -16 -55 15 -35
39 -35 42 -8 76 26 34 63 34 85 1z m885 12 c42 -32 41 -74 -1 -112 l-22 -20
-29 33 c-34 38 -36 51 -8 86 22 29 36 32 60 13z m-1473 -9 c19 -19 14 -59 -10
-85 -26 -28 -38 -29 -72 -2 -31 25 -32 38 -5 73 22 28 66 35 87 14z m1194 -5
c25 -23 22 -50 -8 -78 -31 -29 -51 -31 -76 -8 -20 18 -24 73 -6 91 17 17 68
15 90 -5z"/>
<path d="M3800 9280 c-26 -26 -25 -60 1 -94 26 -33 62 -34 95 0 20 19 24 31
19 52 -15 61 -75 82 -115 42z"/>
<path d="M4131 9273 c-26 -32 -20 -58 20 -95 36 -34 53 -35 84 -3 29 28 31 45
10 84 -25 49 -82 56 -114 14z"/>
<path d="M3916 9128 c-27 -39 -20 -82 18 -116 42 -37 68 -46 111 -38 62 12
105 74 91 131 -11 45 -81 53 -107 13 -3 -5 -21 0 -40 11 -43 26 -54 26 -73 -1z"/>
<path d="M6578 8193 c12 -2 32 -2 45 0 12 2 2 4 -23 4 -25 0 -35 -2 -22 -4z"/>
<path d="M6688 8193 c6 -2 18 -2 25 0 6 3 1 5 -13 5 -14 0 -19 -2 -12 -5z"/>
<path d="M6630 8033 c1 -15 27 -43 34 -36 4 4 4 0 0 -10 -3 -9 -2 -17 3 -17 5
0 15 -17 22 -37 20 -55 46 -89 81 -103 42 -17 49 -5 17 28 -15 14 -27 21 -27
14 0 -6 -5 -12 -11 -12 -5 0 -8 4 -5 9 8 12 -19 33 -29 23 -5 -4 -5 -1 -1 5 8
15 -13 93 -26 93 -4 0 -8 7 -8 15 0 8 5 15 10 15 6 0 10 -4 10 -10 0 -5 5 -10
10 -10 6 0 10 9 10 20 0 17 -7 20 -45 20 -25 0 -45 -3 -45 -7z"/>
<path d="M6495 7830 c-3 -6 1 -7 9 -4 18 7 21 14 7 14 -6 0 -13 -4 -16 -10z"/>
<path d="M6706 7671 c-4 -7 -5 -15 -2 -18 9 -9 19 4 14 18 -4 11 -6 11 -12 0z"/>
<path d="M2605 8635 c-46 -45 -24 -125 34 -125 56 0 88 46 70 100 -19 54 -65
65 -104 25z"/>
<path d="M2935 8630 c-26 -29 -24 -79 4 -102 71 -56 155 38 91 102 -26 26 -72
26 -95 0z"/>
<path d="M2712 8478 c-7 -7 -12 -32 -12 -56 0 -114 159 -150 220 -50 25 42 25
80 0 103 -19 18 -22 18 -56 2 -42 -21 -63 -21 -88 -2 -24 18 -48 19 -64 3z"/>
<path d="M3820 8600 c0 -5 5 -10 11 -10 5 0 7 5 4 10 -3 6 -8 10 -11 10 -2 0
-4 -4 -4 -10z"/>
<path d="M3845 8570 c3 -5 8 -10 11 -10 2 0 4 5 4 10 0 6 -5 10 -11 10 -5 0
-7 -4 -4 -10z"/>
<path d="M3870 8546 c0 -2 8 -10 18 -17 15 -13 16 -12 3 4 -13 16 -21 21 -21
13z"/>
<path d="M4269 8071 c-27 -28 -31 -37 -26 -68 13 -76 79 -106 133 -59 54 46
26 133 -48 151 -22 6 -33 1 -59 -24z"/>
<path d="M3781 8064 c-31 -39 -28 -97 5 -123 61 -48 134 -10 134 69 0 75 -94
111 -139 54z"/>
<path d="M3922 7868 c-7 -7 -12 -31 -12 -54 0 -35 6 -48 41 -83 65 -65 133
-74 221 -30 66 33 104 110 79 158 -14 25 -40 26 -96 6 -52 -18 -135 -18 -159
0 -24 18 -58 19 -74 3z"/>
<path d="M5347 8049 c-26 -15 -48 -65 -41 -94 15 -58 106 -76 143 -29 29 36
27 76 -5 108 -28 27 -66 33 -97 15z"/>
<path d="M5796 8029 c-45 -36 -33 -106 24 -129 24 -10 36 -10 60 0 58 24 67
83 19 124 -37 31 -67 33 -103 5z"/>
<path d="M5696 7844 c-58 -40 -107 -43 -157 -10 -48 32 -69 30 -87 -6 -11 -23
-10 -32 2 -55 31 -61 88 -95 157 -95 90 0 160 55 163 127 1 27 -5 41 -19 51
-19 12 -25 11 -59 -12z"/>
<path d="M4032 7117 c-40 -48 -26 -127 23 -127 30 0 65 32 65 59 0 23 -46 81
-65 81 -7 0 -17 -6 -23 -13z"/>
<path d="M4016 6868 c-21 -30 -20 -61 3 -82 34 -31 91 -2 91 45 0 55 -64 80
-94 37z"/>
<path d="M4014 6625 c-25 -38 -8 -89 30 -93 58 -7 91 69 44 102 -32 23 -55 20
-74 -9z"/>
<path d="M4025 6363 c-13 -9 -14 -182 -2 -200 12 -19 41 -16 60 5 18 19 23 63
10 76 -5 5 -8 33 -8 65 0 52 -2 56 -25 59 -14 1 -30 -1 -35 -5z"/>
<path d="M4966 5869 c-32 -25 -34 -66 -5 -103 25 -32 66 -34 103 -5 32 25 34
66 5 103 -25 32 -66 34 -103 5z"/>
<path d="M5352 5867 c-13 -14 -22 -36 -22 -54 0 -61 87 -96 130 -53 29 29 25
66 -9 101 -35 35 -70 37 -99 6z"/>
<path d="M5092 5708 c-23 -23 -14 -74 18 -101 64 -55 152 -55 206 -2 69 69 17
153 -57 91 -38 -33 -59 -33 -89 -1 -25 27 -59 32 -78 13z"/>
<path d="M4760 4401 c0 -5 8 -11 18 -15 9 -3 24 -9 32 -12 8 -3 4 4 -9 15 -25
22 -41 27 -41 12z"/>
<path d="M2680 4324 c-62 -53 -76 -117 -37 -175 50 -74 132 -87 198 -32 69 59
70 143 2 203 -46 41 -117 42 -163 4z"/>
<path d="M3584 4339 c-11 -6 -33 -29 -47 -52 -47 -72 -30 -145 43 -186 49 -27
89 -27 130 2 80 53 88 128 21 199 -30 33 -45 41 -81 44 -25 2 -54 -1 -66 -7z"/>
<path d="M7886 8983 c-241 -55 -401 -269 -382 -513 14 -199 120 -338 309 -408
220 -82 478 22 591 238 47 89 63 182 46 279 -45 271 -312 462 -564 404z m44
-130 c0 -10 7 -50 17 -90 16 -70 16 -74 -6 -165 -18 -70 -25 -134 -29 -260 -3
-93 -9 -168 -14 -168 -5 0 -27 9 -49 21 l-40 20 3 197 c4 186 5 202 32 277 19
55 26 91 23 117 -4 31 -1 41 16 53 29 20 47 19 47 -2z m176 -1 c8 -5 11 -95
10 -297 -1 -273 -2 -292 -22 -330 -13 -24 -32 -44 -52 -52 l-32 -13 0 72 c0
189 30 488 51 515 6 6 7 33 3 62 -6 46 -5 51 12 51 11 0 24 -4 30 -8z m-380
-159 c-3 -43 -9 -156 -13 -250 -3 -95 -10 -173 -14 -173 -14 0 -36 42 -59 110
-30 90 -25 200 14 285 60 132 82 140 72 28z m542 28 c19 -27 40 -68 49 -92 19
-55 19 -161 0 -216 -16 -47 -97 -186 -104 -179 -2 2 1 42 8 87 8 56 10 144 6
266 -3 101 -3 183 1 183 4 0 22 -22 40 -49z"/>
<path d="M1265 7881 c-120 -31 -232 -147 -271 -279 -21 -74 -14 -190 15 -257
68 -153 225 -245 398 -232 169 13 302 131 343 306 40 169 -54 354 -219 433
-53 25 -79 31 -150 34 -47 2 -99 0 -116 -5z m211 -130 c22 -10 50 -30 61 -44
39 -50 37 -148 -3 -164 -10 -4 -31 10 -62 39 -81 79 -120 86 -192 38 -42 -28
-46 -29 -58 -12 -41 55 -27 103 40 136 64 32 152 35 214 7z"/>
<path d="M8443 6590 c-86 -40 -154 -106 -189 -183 -26 -56 -29 -72 -28 -162 0
-94 3 -105 34 -164 39 -73 103 -134 180 -169 76 -36 207 -37 295 -2 81 32 163
114 196 195 35 90 33 217 -5 302 -37 82 -120 162 -199 191 -90 34 -203 31
-284 -8z m245 -106 c67 -28 129 -105 130 -164 1 -14 5 -49 10 -79 11 -60 7
-87 -14 -95 -8 -3 -11 -12 -7 -22 4 -12 3 -15 -5 -10 -7 4 -12 2 -12 -4 0 -7
-7 -10 -15 -6 -8 3 -14 0 -12 -6 2 -13 -29 -20 -138 -31 -17 -2 -37 -7 -45
-12 -10 -6 -30 10 -73 55 -68 72 -97 128 -91 176 3 26 0 34 -16 39 -21 7 -29
55 -9 55 6 0 9 9 6 19 -6 25 38 68 89 86 53 19 156 19 202 -1z m-351 -286 c-2
-13 -4 -5 -4 17 -1 22 1 32 4 23 2 -10 2 -28 0 -40z m44 -58 c6 0 7 5 4 10 -3
6 1 10 9 10 9 0 16 -6 16 -12 0 -7 3 -23 6 -35 5 -18 3 -21 -15 -16 -12 3 -24
10 -28 16 -4 6 0 8 10 4 10 -3 17 -3 17 2 0 5 -9 11 -20 14 -11 3 -20 11 -19
19 0 10 2 10 6 1 2 -7 9 -13 14 -13z m54 -71 c11 -17 -1 -21 -15 -4 -8 9 -8
15 -2 15 6 0 14 -5 17 -11z m235 -55 c0 -2 -26 -3 -57 -3 -49 1 -53 3 -23 8
33 6 80 3 80 -5z"/>
<path d="M8603 6382 c9 -10 32 -24 51 -32 19 -7 32 -18 30 -24 -5 -13 41 -60
68 -69 10 -3 20 -2 23 3 4 6 0 10 -9 10 -8 0 -31 19 -51 43 -34 39 -99 87
-119 87 -5 0 -2 -8 7 -18z"/>
<path d="M1267 5558 c-22 -18 -37 -61 -37 -113 l0 -43 -71 -7 c-74 -8 -109
-28 -109 -62 0 -34 18 -46 86 -57 75 -12 81 -19 83 -97 1 -46 30 -74 66 -65
29 7 39 28 52 101 l8 50 63 5 c70 6 92 22 92 70 0 33 -23 45 -105 57 l-60 8
-5 66 c-4 59 -20 99 -39 99 -4 0 -15 -6 -24 -12z"/>
<path d="M8155 4911 c-78 -20 -149 -84 -189 -171 -15 -32 -35 -112 -48 -187
l-23 -132 -40 -29 c-123 -90 -193 -233 -194 -397 -2 -141 44 -250 149 -356 75
-76 155 -121 268 -150 96 -24 149 -24 242 2 105 29 185 74 256 144 98 97 138
185 148 320 12 178 -77 386 -188 439 -32 15 -35 20 -46 89 -33 210 -60 288
-124 355 -56 60 -143 90 -211 73z m101 -130 c19 -12 42 -41 58 -73 27 -55 65
-222 54 -234 -4 -3 -30 -1 -58 5 -65 14 -150 14 -224 0 -32 -6 -60 -8 -63 -5
-8 8 36 172 59 222 23 50 55 82 94 94 42 12 46 12 80 -9z m39 -425 c85 -18
182 -72 217 -120 15 -21 28 -42 28 -46 0 -4 -19 -4 -42 1 -70 13 -156 10 -272
-11 -147 -27 -274 -27 -308 0 -37 29 -41 58 -13 86 13 13 29 24 35 24 6 0 23
9 39 21 35 26 151 58 211 58 25 0 72 -6 105 -13z m59 -326 c65 -6 148 -7 184
-4 l65 7 -5 -69 c-3 -39 -11 -80 -17 -93 l-12 -22 -202 4 c-111 2 -277 5 -368
5 -187 1 -188 2 -196 76 -5 44 -5 44 33 55 53 15 74 14 74 -3 0 -20 40 -32 51
-15 6 10 13 10 33 1 21 -9 26 -9 26 3 0 10 16 16 49 21 29 4 52 12 55 20 8 21
46 34 81 29 17 -3 83 -9 149 -15z"/>
<path d="M1393 4891 c-23 -11 -60 -38 -82 -61 -70 -73 -101 -162 -116 -340 -8
-99 -10 -103 -45 -123 -41 -24 -117 -134 -142 -204 -41 -119 -31 -274 26 -399
29 -63 118 -160 187 -205 67 -42 186 -79 259 -79 87 0 203 40 287 99 135 95
213 246 213 413 0 135 -41 234 -143 345 l-64 70 -7 82 c-17 213 -78 340 -188
395 -63 31 -126 33 -185 7z m130 -115 c18 -7 42 -24 54 -37 24 -26 73 -192 73
-247 0 -30 -2 -33 -22 -26 -87 28 -185 31 -265 10 -51 -14 -53 -13 -53 6 0 44
43 199 63 230 24 35 81 78 104 78 7 0 28 -6 46 -14z m90 -439 c31 -14 75 -41
98 -59 39 -32 76 -84 71 -102 -2 -4 6 -15 16 -25 37 -32 10 -90 -53 -112 -30
-11 -33 -17 -44 -80 -28 -153 -106 -219 -258 -219 -41 0 -62 -4 -58 -10 4 -6
12 -7 18 -3 8 5 8 2 -1 -9 -7 -9 -37 -18 -74 -22 l-62 -6 -44 42 c-48 47 -84
117 -103 202 -26 117 29 266 127 343 121 95 246 116 367 60z m14 -674 c6 -17
-102 -50 -111 -34 -3 4 7 14 22 21 15 7 34 16 42 21 19 11 42 7 47 -8z"/>
<path d="M1439 4187 c-15 -7 -46 -30 -70 -52 -24 -22 -57 -51 -74 -63 -19 -15
-22 -19 -7 -12 13 6 22 7 22 1 0 -18 41 2 61 30 11 16 27 29 35 29 8 0 14 5
14 10 0 6 8 10 18 10 10 0 25 9 35 20 10 12 30 20 49 21 28 0 30 2 13 9 -28
12 -65 11 -96 -3z"/>
<path d="M8373 2971 c-85 -61 -103 -115 -52 -153 24 -18 29 -18 60 -5 41 18
104 81 118 120 9 23 7 31 -9 47 -28 28 -70 25 -117 -9z"/>
<path d="M7944 2886 c-69 -73 -56 -125 33 -126 34 0 48 6 77 34 22 21 36 43
36 58 0 29 -34 64 -73 73 -24 7 -34 1 -73 -39z"/>
<path d="M1148 2843 c-37 -6 -76 -83 -59 -119 7 -16 19 -24 36 -24 14 0 33 -8
44 -19 17 -17 19 -41 22 -282 2 -145 2 -392 -1 -549 l-5 -285 -28 -3 c-18 -2
-38 5 -58 23 -39 32 -53 28 -57 -18 -4 -42 19 -91 53 -113 33 -21 271 -37 356
-23 130 21 221 98 253 211 37 132 39 294 4 398 -15 47 -49 100 -87 136 -17 16
-31 33 -31 38 0 4 12 22 27 40 14 17 39 58 55 91 23 51 28 73 28 141 0 189
-89 313 -245 343 -58 11 -267 21 -307 14z m288 -148 c33 -7 73 -43 96 -88 46
-91 15 -253 -56 -296 -49 -30 -117 -46 -127 -29 -10 15 -12 411 -3 421 6 5 32
3 90 -8z m28 -568 c84 -48 126 -142 126 -282 0 -172 -77 -285 -195 -285 -34 0
-54 5 -56 13 -2 6 -2 136 1 287 l5 274 25 7 c41 11 53 10 94 -14z"/>
<path d="M4545 2818 c-30 -17 -44 -40 -45 -70 0 -22 9 -33 40 -53 l41 -26 -3
-520 -3 -520 -40 -34 c-39 -33 -40 -34 -24 -62 15 -27 17 -28 96 -26 125 2
168 34 126 92 -18 24 -20 52 -26 398 -4 218 -3 374 3 378 5 3 11 -3 14 -12 2
-10 16 -56 30 -103 14 -47 41 -166 61 -264 20 -99 40 -187 46 -198 14 -25 48
-23 58 5 4 12 14 60 20 107 11 71 65 302 126 535 12 43 13 -14 14 -433 1 -538
0 -527 68 -579 26 -20 50 -28 93 -31 52 -4 60 -2 89 24 17 16 34 43 37 61 l6
32 -44 -1 c-51 -1 -83 13 -99 44 -8 15 -13 183 -15 568 l-4 547 30 38 c35 44
38 67 10 95 -17 17 -33 20 -104 20 -55 0 -87 -4 -94 -12 -6 -7 -25 -65 -42
-128 -18 -63 -50 -170 -71 -238 -21 -68 -39 -131 -39 -140 0 -26 -69 180 -96
288 -29 115 -70 201 -104 217 -31 16 -128 16 -155 1z"/>
<path d="M1970 2752 c-19 -9 -40 -28 -47 -42 -12 -25 -57 -341 -77 -545 l-11
-110 -35 -11 c-48 -16 -53 -49 -12 -83 l31 -26 -12 -127 c-11 -119 -14 -129
-41 -157 -26 -27 -28 -34 -18 -56 11 -24 16 -25 90 -25 112 0 151 33 101 87
-21 22 -22 25 -10 145 7 68 13 124 14 125 1 0 40 3 87 5 l84 3 12 -130 c12
-123 11 -131 -7 -151 -24 -26 -24 -60 0 -74 11 -5 52 -10 91 -10 67 0 71 1 81
26 7 20 6 32 -5 49 -21 32 -41 306 -25 352 8 25 8 37 -1 47 -6 8 -24 126 -40
263 -37 315 -47 371 -70 409 -34 55 -112 71 -180 36z m90 -238 c5 -49 19 -168
30 -264 11 -96 20 -183 20 -192 0 -16 -10 -18 -75 -18 -41 0 -75 3 -75 8 1 33
49 431 66 541 9 56 24 22 34 -75z"/>
<path d="M2361 2755 c-5 -5 -11 -62 -15 -126 -5 -103 -4 -119 12 -139 14 -17
23 -20 46 -14 32 8 50 42 61 116 l7 46 94 7 c52 4 98 5 101 1 4 -3 1 -21 -5
-39 -24 -73 -140 -388 -227 -622 -101 -268 -132 -371 -122 -398 6 -15 29 -17
236 -17 217 0 231 1 241 19 5 11 10 71 10 135 0 107 -1 116 -22 130 -28 20
-74 21 -81 1 -4 -8 -4 -36 0 -63 3 -29 1 -58 -6 -70 -11 -20 -19 -22 -113 -22
-99 0 -100 0 -95 23 4 20 52 143 178 465 49 124 155 450 164 500 12 71 8 72
-238 75 -137 1 -222 -2 -226 -8z"/>
<path d="M3047 2763 c-38 -6 -65 -48 -48 -74 10 -16 7 -41 -13 -132 -13 -62
-34 -198 -47 -304 l-22 -192 -34 -12 c-56 -18 -66 -65 -18 -87 20 -9 23 -17
19 -49 -24 -235 -26 -245 -45 -264 -22 -22 -25 -49 -7 -67 7 -7 41 -12 83 -12
104 0 142 35 95 85 -19 20 -19 24 -4 145 8 69 17 127 20 130 3 2 47 5 97 5
l92 0 8 -133 c9 -129 8 -134 -12 -148 -25 -18 -27 -46 -5 -68 11 -12 36 -16
95 -16 77 0 80 1 89 26 8 21 6 34 -11 63 -18 31 -22 57 -27 182 -3 104 -1 148
7 153 17 11 13 40 -7 53 -14 8 -21 29 -25 80 -4 38 -22 178 -41 311 -37 258
-49 296 -101 320 -25 12 -81 13 -138 5z m122 -405 c17 -128 31 -251 33 -273
l3 -40 -83 -3 -83 -3 5 33 c6 35 40 307 57 447 19 164 31 135 68 -161z"/>
<path d="M3415 2754 c-26 -26 -19 -67 15 -87 38 -23 44 -49 35 -150 -4 -45 -6
-253 -6 -461 1 -371 1 -380 -20 -402 -13 -14 -19 -32 -17 -50 l3 -29 84 -3
c62 -2 89 1 107 13 29 19 31 46 4 70 -19 17 -20 31 -20 227 0 203 0 208 20
208 32 0 77 -27 104 -62 32 -43 43 -94 56 -259 13 -175 30 -232 84 -285 70
-70 163 -68 201 6 32 62 8 124 -34 86 -26 -24 -58 -20 -77 9 -13 19 -19 64
-25 173 -5 81 -14 168 -19 195 -13 62 -55 144 -92 179 l-29 27 24 13 c31 17
69 62 98 118 21 39 24 59 24 155 0 127 -16 176 -80 240 -67 66 -109 79 -277
81 -121 2 -150 0 -163 -12z m331 -147 c66 -71 68 -229 6 -306 -30 -37 -127
-95 -143 -85 -11 6 -12 417 -1 428 4 4 29 6 56 3 41 -4 55 -11 82 -40z"/>
<path d="M5294 2749 c-21 -24 -17 -55 11 -73 l25 -16 0 -220 c0 -209 -1 -220
-20 -232 -24 -16 -26 -45 -3 -77 14 -20 16 -57 18 -242 l2 -219 -24 -15 c-26
-17 -31 -56 -9 -74 10 -9 72 -11 216 -9 186 3 203 4 216 22 10 14 14 51 14
132 0 125 -6 138 -62 132 -33 -3 -33 -4 -36 -58 -4 -104 -1 -100 -97 -100
l-85 0 2 217 3 218 40 8 c40 9 70 1 107 -25 22 -16 53 10 68 58 14 42 -3 83
-43 102 -24 11 -36 10 -93 -9 -55 -19 -67 -20 -74 -9 -9 14 -2 370 7 380 2 3
38 6 79 8 l74 4 0 -71 c0 -85 20 -114 73 -109 l32 3 3 106 c2 67 -2 119 -10
143 l-13 38 -203 2 c-174 1 -206 -1 -218 -15z"/>
<path d="M5776 2749 c-24 -34 -20 -57 13 -73 16 -9 30 -21 32 -28 2 -7 2 -230
-1 -495 l-5 -481 -28 -22 c-21 -17 -26 -27 -21 -44 10 -31 22 -36 95 -36 92 0
129 14 129 50 0 16 -7 30 -15 34 -13 5 -15 35 -13 218 3 197 4 213 21 216 87
17 130 -74 162 -341 8 -70 22 -145 31 -167 22 -56 66 -90 114 -90 32 0 43 6
64 33 28 36 32 58 16 86 -6 12 -17 17 -32 14 -43 -8 -57 23 -68 148 -19 210
-43 293 -102 355 l-29 31 34 22 c161 100 167 426 9 535 -62 42 -92 49 -243 54
-144 4 -146 4 -163 -19z m329 -139 c40 -39 55 -82 55 -160 -1 -126 -81 -230
-176 -230 l-24 0 0 216 0 216 55 -4 c46 -4 62 -10 90 -38z"/>
<path d="M6545 2755 c-130 -70 -174 -210 -190 -605 -8 -201 3 -305 44 -398 57
-129 120 -182 216 -182 134 1 204 73 220 228 7 70 -8 103 -52 116 -48 13 -60
-2 -68 -92 -8 -90 -22 -118 -67 -127 -29 -7 -36 -4 -70 34 -20 23 -44 64 -53
91 -47 142 -45 553 4 710 33 106 95 147 152 101 23 -18 24 -25 21 -122 -3
-112 0 -119 54 -119 62 0 69 15 69 147 0 138 -13 172 -80 207 -53 27 -158 33
-200 11z"/>
<path d="M6873 2752 c-7 -7 -13 -26 -13 -42 0 -22 7 -30 31 -41 l32 -13 -7
-212 c-4 -117 -11 -227 -16 -244 -5 -19 -5 -41 0 -55 5 -13 10 -123 11 -245 1
-213 0 -222 -20 -241 -23 -22 -28 -58 -9 -77 14 -14 394 -17 415 -4 22 14 33
63 33 148 0 99 -15 124 -76 124 l-36 0 7 -74 c4 -45 3 -76 -3 -80 -5 -3 -45
-3 -89 1 l-80 6 1 210 1 211 39 8 c28 6 47 4 69 -7 43 -22 52 -19 86 22 36 44
38 57 12 100 -27 43 -77 55 -101 23 -12 -15 -31 -24 -64 -27 l-47 -6 1 201 1
200 31 6 c17 3 50 6 73 6 l43 0 7 -62 c4 -35 12 -69 17 -75 16 -19 53 -16 73
7 16 17 17 33 12 121 -3 56 -10 106 -16 112 -17 17 -401 16 -418 -1z"/>
<path d="M7353 2759 c-24 -24 -15 -66 17 -89 l30 -21 0 -215 c0 -167 -3 -223
-15 -250 -13 -32 -13 -39 0 -64 12 -23 15 -73 15 -238 l0 -210 -25 -16 c-25
-17 -32 -49 -16 -75 11 -18 183 -10 206 9 22 18 18 43 -10 70 l-25 23 0 204 0
203 24 6 c50 12 111 -39 131 -111 8 -27 19 -114 25 -192 12 -158 30 -241 61
-284 41 -58 115 -76 163 -38 34 27 33 46 -7 89 -42 44 -77 136 -77 203 -1 141
-41 291 -95 355 l-35 40 28 17 c88 56 129 176 112 328 -14 118 -67 199 -160
240 -57 26 -326 38 -347 16z m297 -127 c47 -23 70 -68 77 -149 7 -84 -7 -139
-50 -194 -29 -39 -104 -88 -134 -89 -10 0 -13 50 -13 218 0 120 3 222 7 225
12 13 78 7 113 -11z"/>
<path d="M8273 2750 c-29 -12 -30 -51 -3 -68 12 -7 20 -23 20 -40 0 -15 -18
-152 -42 -304 -40 -263 -43 -278 -63 -278 -12 0 -30 -6 -40 -14 -16 -12 -18
-19 -10 -43 6 -15 22 -33 36 -40 25 -12 25 -13 17 -90 -17 -157 -26 -202 -49
-232 -19 -25 -21 -36 -13 -59 9 -27 10 -27 111 -30 86 -2 102 0 107 14 4 9 0
26 -9 38 -8 12 -21 30 -29 41 -12 17 -13 41 -4 151 l11 131 96 -5 c53 -2 98
-6 101 -9 2 -2 9 -92 15 -199 l10 -196 53 -49 c59 -54 103 -68 162 -50 52 15
82 54 78 100 -4 44 -26 51 -67 22 -35 -25 -35 -25 -55 -6 -24 25 -34 77 -46
256 l-12 167 23 32 24 32 -25 20 c-22 18 -27 35 -42 142 -28 209 -79 489 -94
517 -25 49 -50 59 -149 58 -49 0 -100 -4 -112 -9z m157 -178 c0 -15 9 -79 20
-142 19 -106 50 -345 50 -380 0 -12 -16 -15 -85 -15 -70 -1 -85 2 -85 15 0 8
11 85 24 170 13 85 29 204 36 264 6 61 14 114 16 118 10 15 24 -3 24 -30z"/>
<path d="M7900 2716 c-19 -19 -10 -51 19 -76 l30 -25 2 -472 c2 -440 1 -474
-15 -492 -40 -44 15 -97 90 -88 75 8 103 49 68 103 -13 20 -15 39 -11 97 4 40
7 266 8 502 l2 430 -24 11 c-32 16 -156 23 -169 10z"/>
<path d="M4078 2383 c-25 -6 -23 -27 13 -140 47 -151 59 -182 85 -213 21 -25
23 -32 12 -49 -6 -11 -28 -29 -48 -40 -54 -30 -77 -58 -64 -79 17 -27 58 -43
93 -36 68 14 121 102 195 326 24 73 52 150 62 170 25 53 10 68 -72 68 -34 0
-65 -4 -68 -9 -3 -5 1 -25 9 -46 14 -32 14 -40 1 -66 -8 -16 -20 -54 -26 -84
-6 -30 -15 -57 -20 -60 -15 -9 -49 104 -59 200 l-6 60 -45 2 c-25 0 -53 -1
-62 -4z"/>
<path d="M2923 1293 c-20 -4 -22 -12 -27 -111 -3 -59 -8 -143 -11 -187 -3 -44
-2 -85 2 -91 5 -7 62 -13 141 -17 l133 -6 10 25 c5 14 9 36 9 49 0 29 -15 34
-115 37 l-70 3 0 150 0 150 -25 1 c-14 1 -35 0 -47 -3z"/>
<path d="M3383 1288 c-26 -31 -146 -366 -139 -385 3 -6 21 -15 41 -19 41 -7
65 7 65 41 0 36 22 46 91 43 l62 -3 15 -44 14 -43 41 6 c22 4 44 9 49 12 18
11 5 56 -65 224 l-72 175 -46 3 c-29 2 -50 -2 -56 -10z m81 -205 c7 -21 4 -23
-28 -23 -41 0 -45 13 -20 62 l16 32 13 -25 c7 -13 16 -34 19 -46z"/>
<path d="M4005 1291 l-40 -6 2 -185 c1 -102 2 -191 2 -197 1 -9 18 -13 51 -13
l50 0 0 53 c0 97 2 99 84 95 l71 -3 0 45 0 45 -74 1 c-72 0 -74 1 -76 25 -4
50 1 52 102 46 l93 -6 0 54 0 55 -112 -1 c-62 -1 -131 -5 -153 -8z"/>
<path d="M4444 1292 c-22 -15 -153 -321 -157 -366 -2 -30 -1 -31 46 -34 49 -3
50 -3 61 51 6 26 8 27 80 27 l73 0 12 -40 c12 -40 12 -40 61 -40 27 0 51 4 54
9 8 13 -122 359 -146 389 -11 13 -66 16 -84 4z m59 -187 l16 -45 -35 0 c-22 0
-34 5 -34 14 0 22 21 76 30 76 4 0 15 -20 23 -45z"/>
<path d="M4785 1286 c-18 -13 -20 -30 -23 -196 -3 -114 -1 -185 6 -192 11 -11
78 -15 88 -5 4 3 10 52 13 109 l7 103 27 -56 c52 -107 89 -113 133 -23 14 29
29 54 33 54 4 0 5 -27 3 -60 -2 -33 -1 -76 2 -95 7 -34 9 -35 50 -35 l43 0 6
196 c4 108 4 200 1 205 -3 5 -27 9 -54 9 -49 0 -50 -1 -75 -47 -63 -121 -72
-134 -79 -116 -4 9 -28 50 -53 90 -42 65 -50 73 -78 73 -17 0 -40 -6 -50 -14z"/>
<path d="M5329 1294 c-24 -7 -29 -47 -29 -220 0 -125 3 -155 16 -168 18 -19
78 -21 90 -3 5 6 7 98 4 202 l-5 190 -30 2 c-16 0 -37 -1 -46 -3z"/>
<path d="M5558 1293 c-9 -2 -18 -16 -20 -31 -6 -55 9 -353 19 -363 6 -6 61 -8
139 -7 l129 3 0 45 0 45 -87 3 -88 3 0 132 c0 91 -4 138 -12 150 -14 17 -53
28 -80 20z"/>
<path d="M5940 1091 l0 -199 28 -7 c16 -3 41 -1 55 4 l27 11 -2 192 -3 193
-52 3 -53 3 0 -200z"/>
<path d="M6275 1258 c-38 -86 -125 -322 -125 -339 0 -24 40 -44 72 -36 18 5
27 17 34 44 l9 38 70 3 70 2 17 -40 c14 -34 21 -40 46 -40 46 0 62 10 62 37 0
25 -85 253 -122 326 -18 35 -21 37 -68 37 -47 0 -51 -2 -65 -32z m78 -125 c8
-16 18 -38 21 -50 7 -21 4 -23 -33 -23 -23 0 -41 4 -41 10 0 12 31 90 36 90 2
0 10 -12 17 -27z"/>
<path d="M2381 1240 c-33 -21 -42 -21 -531 -20 -313 0 -507 -3 -523 -9 -23 -9
-27 -16 -27 -50 0 -27 5 -41 18 -47 9 -5 242 -10 516 -11 l499 -4 34 -29 c27
-24 43 -30 81 -30 55 0 107 27 124 66 15 33 -10 83 -61 118 -53 37 -89 41
-130 16z"/>
<path d="M6915 1231 c-38 -22 -65 -62 -65 -94 0 -55 82 -114 138 -101 15 4 47
19 72 33 l45 26 630 7 c347 3 648 10 670 15 37 8 40 11 43 44 2 21 -2 40 -10
46 -9 8 -241 13 -711 17 -429 4 -706 10 -717 16 -28 15 -62 12 -95 -9z"/>
</g>
</svg>
