<?xml version="1.0" standalone="no"?>
<!DOCTYPE svg PUBLIC "-//W3C//DTD SVG 20010904//EN"
 "http://www.w3.org/TR/2001/REC-SVG-20010904/DTD/svg10.dtd">
<svg version="1.0" xmlns="http://www.w3.org/2000/svg"
 width="1024.000000pt" height="1024.000000pt" viewBox="0 0 1024.000000 1024.000000"
 preserveAspectRatio="xMidYMid meet">

<g transform="translate(0.000000,1024.000000) scale(0.100000,-0.100000)"
fill="#000000" stroke="none">
<path d="M4915 8249 c-288 -17 -563 -88 -809 -209 -168 -82 -256 -138 -392
-248 -153 -123 -394 -387 -394 -432 0 -14 -17 -2 -62 45 -53 53 -73 66 -122
80 -68 20 -127 15 -184 -14 -84 -43 -122 -112 -130 -238 -5 -82 -5 -82 -44
-109 -122 -85 -191 -242 -143 -329 l17 -33 -32 -48 c-18 -26 -53 -94 -76 -152
-24 -57 -48 -110 -53 -116 -5 -6 -19 -42 -32 -81 -12 -38 -35 -87 -50 -108
-15 -21 -38 -68 -50 -105 -12 -36 -40 -109 -61 -161 -66 -158 -158 -435 -158
-473 0 -32 106 -68 327 -113 39 -8 40 -13 13 -65 -11 -22 -20 -52 -20 -67 l0
-28 140 -1 c146 0 176 -8 150 -39 -9 -11 -33 -15 -95 -15 -90 0 -330 -17 -357
-26 -49 -15 0 -54 66 -54 29 0 56 -3 59 -6 3 -4 -17 -32 -45 -63 -28 -31 -64
-85 -82 -121 -29 -62 -31 -71 -31 -185 0 -111 2 -124 27 -171 87 -165 266
-263 430 -234 126 22 245 100 300 196 16 30 32 54 34 54 2 0 13 -18 24 -40 29
-56 124 -149 190 -185 52 -28 62 -30 165 -30 104 0 114 2 176 32 73 36 160
117 190 175 11 21 21 38 23 38 2 0 18 -22 35 -49 70 -108 179 -182 298 -201
147 -24 314 50 399 177 21 32 41 62 45 67 4 4 23 -16 42 -46 38 -59 113 -130
167 -158 52 -27 152 -43 220 -37 115 10 264 103 317 197 15 27 30 50 33 50 3
0 11 -14 19 -31 23 -53 133 -156 197 -187 53 -24 70 -27 169 -27 104 0 114 2
175 32 85 42 142 91 182 159 36 59 43 64 53 34 7 -23 79 -116 110 -143 11 -9
54 -34 94 -55 71 -35 80 -37 167 -37 85 1 97 3 166 37 92 46 159 104 195 169
16 27 30 49 33 49 3 0 14 -16 25 -36 33 -61 116 -137 190 -174 67 -33 75 -35
175 -35 102 0 107 1 177 37 91 47 144 103 191 197 36 73 37 78 37 185 0 130
-18 187 -91 286 -24 33 -44 62 -44 64 0 2 26 6 57 10 31 4 63 12 70 18 18 15
16 45 -3 52 -9 3 -138 6 -287 6 -150 0 -330 3 -400 7 l-128 6 39 41 c70 72 86
130 61 220 -14 51 -80 121 -135 142 -62 23 -170 15 -214 -16 l-32 -23 -46 47
-47 48 25 16 c13 9 48 38 77 63 29 26 90 68 136 94 149 87 233 193 293 369 21
60 24 88 24 210 0 222 -31 333 -173 631 -130 274 -221 407 -400 587 -163 164
-213 205 -385 312 -270 170 -579 278 -867 305 -157 15 -225 17 -350 10z m297
-120 c111 -11 280 -41 368 -66 87 -24 328 -129 426 -184 184 -106 362 -250
505 -412 110 -124 267 -357 240 -357 -5 0 -30 9 -56 20 -25 11 -74 27 -107 36
-34 8 -82 26 -107 40 -85 45 -137 29 -147 -44 l-6 -47 -61 1 c-88 1 -107 9
-107 45 0 16 5 29 10 29 6 0 10 5 10 10 0 6 -15 10 -32 11 l-33 1 30 9 c17 5
46 6 65 3 29 -4 32 -3 17 6 -14 9 -259 13 -902 15 -487 2 -890 7 -896 11 -8 5
-9 3 -4 -5 4 -8 -5 -6 -25 4 l-32 16 37 37 c139 137 103 352 -73 442 -37 19
-54 22 -121 18 -119 -7 -194 -58 -237 -162 -21 -51 -19 -50 -152 -61 -78 -7
-182 2 -182 15 0 16 122 125 208 187 88 63 268 169 377 222 146 70 439 144
655 164 81 8 236 6 332 -4z m-895 -509 c35 -25 63 -84 63 -129 0 -36 -52 -108
-98 -134 -18 -11 -52 -19 -79 -20 -42 0 -50 4 -78 36 -79 92 -67 198 29 259
42 26 120 21 163 -12z m-1155 -277 c76 -69 60 -190 -33 -242 -53 -29 -87 -24
-129 18 -57 57 -60 170 -6 219 45 42 125 44 168 5z m829 20 c13 -16 12 -17 -3
-4 -10 7 -18 15 -18 17 0 8 8 3 21 -13z m246 -163 c47 0 58 -4 94 -37 73 -66
73 -68 77 -348 4 -253 -4 -503 -17 -523 -6 -10 -152 -4 -238 9 -17 3 -16 19 2
62 23 56 22 154 -2 202 -36 69 -110 136 -142 128 -19 -5 -21 -1 -21 39 0 94
28 202 57 221 16 10 17 29 2 44 -9 9 -18 9 -38 -2 -30 -15 -120 -127 -160
-200 -16 -27 -52 -90 -80 -140 -29 -49 -64 -116 -78 -150 -29 -71 -44 -88 -66
-79 -26 10 -21 54 17 141 18 43 39 96 46 118 18 58 94 215 135 279 97 153 234
254 325 241 19 -3 59 -5 87 -5z m2331 -160 c98 -34 163 -68 170 -88 2 -8 -16
-32 -40 -55 -24 -23 -61 -65 -81 -94 -21 -29 -51 -63 -67 -76 -16 -14 -26 -28
-23 -31 4 -3 1 -6 -6 -6 -7 0 -9 -5 -5 -12 5 -7 2 -9 -8 -5 -17 6 -28 -18 -28
-60 0 -12 -4 -24 -10 -28 -6 -3 -8 85 -7 240 1 135 6 245 10 245 4 0 47 -14
95 -30z m-3292 -15 c0 -28 -2 -32 -13 -24 -16 14 -17 31 -1 47 7 7 12 12 13
12 0 0 0 -16 1 -35z m2524 -5 c0 -19 7 -20 120 -20 113 0 120 -1 120 -20 0
-13 -7 -20 -20 -20 -18 0 -20 -7 -20 -58 0 -73 -15 -89 -93 -98 -31 -4 -54
-11 -51 -16 3 -4 10 -5 16 -2 7 4 8 2 4 -4 -4 -6 4 -18 18 -27 13 -9 27 -23
30 -32 4 -9 -8 -2 -26 15 -55 55 -96 64 -266 60 -152 -3 -179 4 -64 16 65 7
125 24 90 25 -11 1 -18 9 -18 21 0 18 -7 20 -60 20 l-60 0 0 60 c0 53 2 60 20
60 13 0 20 7 20 20 0 19 7 20 120 20 113 0 120 -1 120 -20z m-893 -40 c74 -45
84 -144 20 -208 -30 -30 -44 -36 -92 -40 -64 -5 -84 7 -116 70 -38 74 -17 137
59 178 47 25 89 25 129 0z m1430 -2 c-3 -8 -6 -5 -6 6 -1 11 2 17 5 13 3 -3 4
-12 1 -19z m-2292 -16 c-3 -3 -11 0 -18 7 -9 10 -8 11 6 5 10 -3 15 -9 12 -12z
m-849 -54 c52 -37 107 -106 131 -162 10 -23 45 -96 79 -163 58 -116 69 -146
38 -105 -13 16 -14 16 -8 0 3 -10 2 -18 -2 -18 -16 0 -64 65 -90 122 -15 31
-37 61 -49 68 -13 7 -44 43 -70 81 -25 37 -65 84 -87 104 -37 34 -43 36 -84
30 -30 -4 -44 -3 -44 5 0 7 -8 9 -20 5 -25 -8 -27 10 -2 20 18 8 141 43 155
44 5 1 29 -13 53 -31z m1400 -130 c5 -10 4 -10 -5 -2 -14 13 -29 100 -22 129
3 11 8 -10 12 -47 4 -37 11 -73 15 -80z m1741 80 c-2 -13 -4 -3 -4 22 0 25 2
35 4 23 2 -13 2 -33 0 -45z m517 10 c9 -12 16 -26 16 -30 0 -4 -26 -25 -57
-46 -32 -22 -86 -65 -121 -96 -34 -31 -65 -56 -67 -56 -13 0 0 21 46 75 28 33
69 86 90 118 43 62 68 71 93 35z m-1221 -35 c-7 -2 -19 -2 -25 0 -7 3 -2 5 12
5 14 0 19 -2 13 -5z m704 -40 c-3 -10 -5 -4 -5 12 0 17 2 24 5 18 2 -7 2 -21
0 -30z m-912 -139 c11 -8 44 -14 80 -14 l61 0 -4 -39 c-3 -34 -1 -39 21 -45
14 -3 34 -3 44 0 15 5 16 4 3 -5 -13 -10 -13 -12 0 -21 11 -7 16 -5 18 11 3
18 9 20 35 15 68 -13 126 -12 132 2 2 7 0 10 -5 7 -6 -4 -7 5 -4 23 5 26 2 30
-28 39 l-33 11 31 1 c18 1 37 -6 45 -15 8 -10 17 -80 26 -197 7 -100 19 -210
27 -244 35 -146 117 -251 266 -339 74 -44 230 -171 238 -194 4 -10 -51 -63
-85 -81 -18 -10 -30 -7 -74 15 -61 30 -161 36 -207 12 -67 -35 -142 -153 -142
-223 0 -45 29 -104 73 -150 l31 -33 -108 0 c-158 0 -176 14 -190 151 l-6 56
50 23 c87 41 89 46 52 153 -35 103 -82 279 -82 308 0 47 45 -9 70 -87 21 -67
37 -85 68 -78 72 17 76 62 13 154 -21 30 -47 73 -59 95 -11 22 -48 71 -83 109
-52 57 -61 71 -51 85 6 9 24 36 39 60 59 97 22 241 -80 305 -59 36 -153 46
-211 22 -45 -19 -56 -20 -56 -6 0 6 9 10 19 10 11 0 26 6 33 14 8 8 23 16 34
19 16 4 15 5 -5 6 -20 1 -23 5 -19 31 2 16 1 31 -3 32 -4 2 -8 19 -9 38 -3 57
2 68 10 21 4 -25 15 -50 25 -57z m1516 0 c9 -27 20 -72 24 -99 6 -51 6 -51
-23 -53 -25 -2 -29 1 -25 16 6 23 -12 38 -56 47 -23 5 -31 4 -27 -4 4 -6 -4
-10 -21 -10 -39 0 -93 -12 -93 -21 0 -13 -38 -18 -51 -6 -9 8 -10 8 -5 -1 4
-7 -1 -12 -11 -12 -10 0 -31 -3 -48 -6 -26 -6 -22 -1 25 31 96 66 275 173 285
170 6 -1 17 -25 26 -52z m-3416 -53 c3 -5 1 -12 -5 -16 -5 -3 -10 1 -10 9 0
18 6 21 15 7z m1359 -10 c43 -10 90 -50 113 -96 8 -16 38 -53 66 -81 95 -93
232 -246 232 -257 0 -22 -47 -19 -83 6 -52 35 -115 98 -133 133 -25 49 -74
123 -81 124 -15 0 -23 -103 -21 -263 l3 -168 -98 6 c-116 8 -124 10 -121 32 0
10 0 81 -1 158 l-3 140 -9 -115 c-5 -63 -6 -134 -4 -157 6 -44 -2 -53 -50 -53
-23 0 -24 3 -23 68 1 99 48 352 71 380 19 23 -19 13 -50 -13 -20 -17 -48 -66
-83 -147 -51 -115 -54 -121 -57 -85 -2 20 -7 37 -11 37 -12 0 -32 -26 -26 -32
3 -3 -1 -11 -10 -18 -21 -17 -20 -8 10 113 30 117 68 182 149 253 49 42 53 44
116 44 36 0 82 -5 104 -9z m1453 -68 c-2 -16 -4 -3 -4 27 0 30 2 43 4 28 2
-16 2 -40 0 -55z m-2333 47 c43 -16 68 -66 63 -129 -3 -46 -9 -59 -36 -83 -26
-23 -40 -28 -84 -28 -32 0 -61 6 -76 16 -30 21 -51 72 -51 123 0 36 5 44 46
76 49 37 89 44 138 25z m1127 -27 c13 -16 12 -17 -3 -4 -10 7 -18 15 -18 17 0
8 8 3 21 -13z m103 -120 c-25 -18 -29 -17 -45 15 -23 45 -23 48 0 20 32 -40
51 -36 53 10 l1 37 4 -35 c3 -25 0 -38 -13 -47z m57 43 c-6 -7 -18 -28 -26
-47 -10 -21 -14 -24 -10 -9 4 14 9 37 12 52 3 18 10 25 19 21 10 -4 11 -9 5
-17z m-2466 -94 c-21 -47 -40 -104 -43 -125 -6 -44 -16 -39 -31 17 -8 31 -7
45 6 70 31 60 97 150 101 138 2 -7 -13 -52 -33 -100z m425 6 c48 -111 101
-343 130 -563 11 -88 34 -227 51 -309 32 -163 31 -169 -25 -164 -26 3 -31 10
-47 57 -10 29 -23 92 -29 140 -37 290 -117 684 -175 858 -6 17 -2 22 17 26 51
10 55 7 78 -45z m2310 27 c25 -23 45 -85 37 -117 -4 -12 -19 -38 -34 -57 -24
-28 -37 -34 -80 -38 -48 -5 -55 -3 -82 24 -65 66 -62 143 9 191 28 19 44 23
83 19 26 -2 56 -12 67 -22z m-2910 -39 c0 -3 -4 -8 -10 -11 -5 -3 -10 -1 -10
4 0 6 5 11 10 11 6 0 10 -2 10 -4z m4318 -48 c-3 -29 -15 -73 -27 -98 l-21
-45 4 42 c7 70 -5 74 -211 84 -98 4 -288 8 -423 8 -233 1 -246 2 -263 21 -9
11 -25 21 -34 22 -10 0 5 4 32 8 28 4 252 8 499 8 l448 2 -4 -52z m-3335 -10
c90 -70 140 -89 265 -95 97 -5 104 -7 126 -34 17 -20 31 -60 46 -126 11 -54
35 -154 52 -223 18 -69 32 -143 32 -165 1 -38 0 -40 -39 -46 -36 -7 -439 0
-432 7 1 2 26 5 55 7 73 6 81 19 18 29 -11 2 -21 9 -24 17 -3 10 0 12 12 8 9
-4 16 -1 16 5 0 6 5 7 13 2 7 -5 4 -1 -7 9 -17 16 -17 19 -4 30 10 7 18 36 21
77 3 36 3 58 0 50 -3 -8 -11 -28 -18 -45 -7 -16 -17 -43 -24 -58 -6 -16 -9
-33 -6 -38 4 -5 3 -9 -2 -9 -13 0 -78 -62 -75 -71 3 -11 -25 -12 -31 -1 -5 7
11 68 68 257 36 121 59 252 49 278 -4 11 -1 17 7 17 22 0 -76 53 -121 65 -47
13 -110 55 -110 74 0 47 36 41 113 -21z m-185 -71 c43 -44 59 -74 20 -37 l-22
20 -12 -22 c-14 -25 -15 -23 -33 45 -5 20 -6 37 -2 37 4 0 26 -19 49 -43z
m-800 -32 c2 -2 6 -22 9 -45 5 -38 4 -42 -13 -36 -10 3 -43 10 -72 16 -68 13
-72 15 -72 51 l0 30 73 -7 c39 -3 74 -8 75 -9z m1735 -242 c7 -218 6 -637 0
-533 -2 30 -10 107 -19 170 -34 268 -37 309 -25 367 6 31 11 92 11 135 0 58 3
78 13 78 11 0 15 -46 20 -217z m773 99 c42 -31 56 -52 34 -52 -7 0 -7 -6 0
-20 6 -11 8 -20 5 -20 -3 0 -1 -9 5 -20 6 -11 17 -20 24 -20 9 0 5 -15 -12
-51 -19 -38 -27 -72 -30 -128 -2 -45 -13 -105 -28 -147 -13 -39 -24 -83 -24
-99 0 -34 25 -65 53 -65 44 0 97 -23 97 -42 0 -29 -85 -204 -103 -211 -8 -3
-33 -3 -56 0 l-41 6 4 401 c6 563 6 545 17 521 6 -11 30 -35 55 -53z m-618 38
c7 -11 15 -40 18 -64 6 -39 4 -46 -19 -61 -54 -35 -81 15 -61 114 8 37 42 43
62 11z m1029 -52 c37 -41 43 -65 43 -172 0 -74 7 -141 25 -222 13 -65 22 -121
19 -125 -8 -14 -70 -11 -82 4 -5 6 -11 21 -13 32 -3 13 -16 21 -44 27 -22 4
-57 12 -77 18 l-37 11 -3 157 c-3 140 -4 150 -12 93 -8 -58 -10 -62 -21 -41
-9 17 -14 19 -18 9 -3 -8 -3 27 0 76 3 55 11 100 21 117 14 24 23 28 76 31 34
2 70 4 82 5 11 1 30 -8 41 -20z m-3027 -23 c43 -9 91 -13 116 -9 l42 6 12 -74
c6 -40 20 -116 30 -168 33 -170 43 -238 37 -255 -7 -17 -2 -18 -239 6 -65 7
-115 16 -112 21 3 4 14 8 25 8 30 0 23 65 -8 79 -29 13 -29 34 -4 166 10 55
21 123 24 150 4 43 4 46 -6 23 -6 -16 -14 -28 -19 -28 -4 0 -4 -7 -1 -17 4
-10 2 -14 -5 -9 -6 3 -14 1 -18 -5 -11 -18 -14 -80 -3 -73 5 3 9 0 9 -5 0 -6
-6 -11 -14 -11 -7 0 -19 -7 -26 -15 -7 -9 -15 -13 -18 -10 -3 3 2 11 11 18 9
6 18 26 18 42 4 71 54 209 68 187 4 -6 40 -18 81 -27z m2420 -172 c-1 -34 -2
-36 -12 -18 -6 11 -16 23 -21 26 -13 9 0 29 19 29 10 0 14 -11 14 -37z m-431
-55 c-1 -86 -16 -103 -18 -20 0 42 3 72 9 72 6 0 10 -24 9 -52z m-1014 -23 c5
-28 4 -37 -3 -30 -6 6 -14 30 -17 55 -8 56 10 34 20 -25z m2997 -5 l-52 -50
-43 45 -43 44 46 4 c25 2 67 4 95 5 l49 2 -52 -50z m-4155 0 c-1 -12 -5 -16
-10 -11 -5 5 -6 14 -3 20 11 16 15 13 13 -9z m2160 -202 c-3 -7 -5 -2 -5 12 0
14 2 19 5 13 2 -7 2 -19 0 -25z m-2203 -7 c-7 -8 -35 9 -29 19 4 6 11 5 20 -3
7 -6 11 -14 9 -16z m4201 -53 c44 -34 52 -45 44 -59 -14 -27 -11 -112 6 -152
8 -20 28 -52 45 -70 16 -19 27 -37 23 -41 -8 -8 -333 -7 -355 2 -14 6 -12 15
20 66 34 54 37 66 37 131 l-1 71 53 37 c29 21 53 42 53 47 0 19 22 10 75 -32z
m-2859 -1 c6 -7 -19 -117 -28 -117 -5 0 -6 -4 -3 -10 3 -5 1 -10 -5 -10 -6 0
-8 -4 -5 -10 3 -5 1 -10 -4 -10 -6 0 -11 8 -12 18 0 9 -5 2 -10 -17 -6 -18
-12 -32 -13 -30 -2 2 -11 38 -20 79 -8 41 -19 86 -22 99 l-7 24 63 -6 c35 -4
64 -8 66 -10z m378 -92 c7 -79 -1 -152 -15 -138 -5 5 -13 40 -18 78 -6 39 -13
84 -17 102 -5 25 -3 32 12 35 11 3 22 3 25 2 3 -2 9 -37 13 -79z m2129 74 c34
-16 57 -60 57 -114 0 -75 -60 -116 -140 -95 -56 15 -90 56 -90 110 0 26 48 80
85 96 37 16 57 17 88 3z m-2396 -71 c-27 -58 -53 -96 -60 -88 -8 9 38 141 53
150 29 18 32 -8 7 -62z m3095 45 c73 -77 23 -193 -84 -193 -50 0 -108 49 -108
92 0 100 129 167 192 101z m-2342 -247 c-7 -7 -10 26 -10 105 0 64 3 119 8
123 4 4 8 -43 10 -105 2 -68 -1 -116 -8 -123z m-621 95 c12 -51 20 -100 17
-107 -6 -16 -69 -18 -101 -4 -11 5 -15 9 -9 9 6 1 11 15 11 31 0 22 -4 29 -14
26 -18 -7 -17 -5 23 80 20 42 39 72 44 68 4 -5 18 -51 29 -103z m1441 77 c-1
-18 -25 -48 -39 -48 -14 0 -14 3 1 35 12 26 38 35 38 13z m269 -38 c6 -28 11
-60 11 -72 0 -18 -2 -19 -17 -7 -21 18 -43 71 -43 104 0 18 5 25 19 25 15 0
22 -11 30 -50z m-832 18 c-3 -8 -6 -5 -6 6 -1 11 2 17 5 13 3 -3 4 -12 1 -19z
m716 -70 c38 -108 38 -108 -30 -107 -32 1 -70 4 -85 8 l-26 6 51 93 c28 51 54
89 57 85 4 -5 19 -42 33 -85z m-738 -27 c-4 -17 -10 -31 -15 -31 -4 0 -3 16 3
35 13 42 22 39 12 -4z m-1171 -3 c-38 -67 -73 -84 -114 -58 -19 12 -11 19 52
46 64 26 71 28 62 12z m-509 -68 c13 -6 -14 -9 -77 -9 -59 -1 -98 3 -98 9 0
12 147 12 175 0z m70 -129 c8 -13 -79 -25 -112 -15 l-28 7 30 7 c45 11 103 11
110 1z m773 3 c21 -6 18 -10 -33 -38 -30 -18 -53 -35 -49 -39 3 -3 -4 -5 -16
-4 -12 1 -29 14 -38 29 -9 15 -23 28 -31 28 -36 0 6 16 57 21 86 9 85 9 110 3z
m771 -1 c20 -5 16 -9 -34 -30 -43 -18 -60 -21 -70 -13 -8 7 -19 9 -24 6 -6 -4
-15 2 -21 13 -9 18 -6 20 27 24 67 7 98 7 122 0z m759 0 c13 -3 19 -9 14 -12
-5 -3 -21 -25 -36 -48 -14 -24 -31 -43 -36 -43 -5 0 -20 16 -32 35 -13 20 -37
40 -57 48 l-35 12 50 6 c73 9 106 9 132 2z m820 -10 c2 -8 -6 -13 -20 -13 -13
0 -28 -4 -33 -9 -25 -24 -135 -9 -135 19 0 21 180 24 188 3z m759 2 c2 -1 -20
-16 -47 -34 -39 -25 -57 -31 -78 -26 -26 6 -82 51 -82 66 0 6 200 1 207 -6z
m-4215 -25 c103 -53 168 -136 168 -217 0 -58 -16 -55 -65 13 -67 91 -182 163
-262 164 -23 0 -45 5 -48 10 -3 6 -17 10 -31 10 -13 0 -24 5 -24 10 0 6 5 10
10 10 17 0 19 1 47 16 39 21 147 12 205 -16z m774 0 c100 -43 166 -143 167
-255 1 -50 -6 -74 -39 -145 -43 -90 -83 -141 -60 -78 6 18 19 44 29 58 26 37
20 47 -10 18 -39 -36 -125 -77 -176 -84 -64 -9 -123 11 -174 59 -69 67 -100
182 -68 260 4 9 3 17 -3 17 -5 0 -13 -10 -17 -22 -6 -20 -8 -21 -12 -5 -6 23
-29 16 -25 -7 3 -15 0 -16 -17 -6 -19 9 -21 8 -21 -14 0 -13 -7 -37 -15 -52
l-15 -29 0 30 c1 44 30 102 88 171 52 62 113 97 187 107 50 7 137 -4 181 -23z
m1475 14 c103 -31 175 -87 219 -174 22 -42 28 -152 10 -180 -9 -13 -10 -13
-10 1 0 8 -7 24 -16 35 -15 18 -15 18 -11 -8 2 -15 0 -33 -4 -40 -6 -9 -9 -6
-9 10 0 18 -6 22 -30 22 -22 0 -30 5 -30 18 0 14 2 15 10 2 7 -11 10 -7 10 18
0 18 5 43 11 55 7 12 8 19 4 15 -10 -9 -34 14 -28 27 10 28 -139 114 -213 123
-25 2 -62 -2 -90 -12 -57 -19 -57 -19 -48 -5 3 6 1 15 -6 19 -18 11 -5 27 43
52 78 40 114 44 188 22z m844 -18 c72 -33 119 -78 155 -148 29 -60 41 -140 21
-152 -4 -3 -21 18 -36 46 -41 75 -105 134 -187 174 -60 28 -84 34 -139 34 -63
0 -67 1 -62 20 16 60 144 73 248 26z m767 9 c56 -20 132 -84 157 -134 24 -47
40 -127 34 -172 -6 -43 -73 -181 -91 -187 -8 -2 -10 2 -5 14 4 12 3 15 -5 10
-15 -9 -16 16 -1 31 6 6 -21 -4 -61 -23 -92 -44 -176 -57 -220 -34 -77 40
-135 119 -154 213 -4 15 -10 27 -14 27 -16 0 -40 -56 -35 -83 3 -15 1 -27 -5
-27 -6 0 -7 -13 -2 -35 12 -55 -8 -30 -26 32 -47 163 37 306 218 374 60 22
133 20 210 -6z m793 -15 c24 -12 54 -30 67 -40 32 -24 76 -115 84 -170 l6 -45
-74 77 c-82 86 -158 128 -245 136 -47 4 -51 6 -55 33 -5 30 -3 32 57 41 35 6
115 -10 160 -32z m-3105 6 c59 -31 119 -86 143 -129 34 -65 31 -191 -6 -272
-28 -60 -62 -105 -80 -105 -5 0 -4 7 3 15 9 10 9 15 1 15 -6 0 -11 9 -11 20 0
25 -11 25 -58 2 -130 -65 -216 -47 -299 63 -45 60 -67 170 -43 216 7 13 7 19
0 19 -5 0 -10 -4 -10 -10 0 -5 -15 -24 -33 -43 -23 -22 -37 -48 -43 -78 l-8
-44 -4 52 c-5 84 12 126 80 199 89 95 114 105 248 100 58 -1 96 -8 120 -20z"/>
<path d="M4913 7523 c15 -2 37 -2 50 0 12 2 0 4 -28 4 -27 0 -38 -2 -22 -4z"/>
<path d="M4071 6763 c0 -29 2 -33 8 -18 7 18 4 55 -5 55 -2 0 -4 -17 -3 -37z"/>
<path d="M4017 6723 c-3 -5 7 -14 23 -20 24 -9 28 -8 26 6 -3 17 -41 28 -49
14z"/>
<path d="M3703 6663 c-40 -60 -88 -187 -77 -204 3 -6 14 11 24 37 9 27 31 80
49 118 34 72 36 96 4 49z"/>
<path d="M4691 6064 c0 -11 3 -14 6 -6 3 7 2 16 -1 19 -3 4 -6 -2 -5 -13z"/>
<path d="M4710 6050 c0 -5 5 -10 11 -10 5 0 7 5 4 10 -3 6 -8 10 -11 10 -2 0
-4 -4 -4 -10z"/>
<path d="M3806 6005 c-4 -42 -10 -83 -13 -93 -5 -13 -3 -14 6 -6 12 11 29 174
19 174 -3 0 -8 -34 -12 -75z"/>
<path d="M5211 4744 c0 -11 3 -14 6 -6 3 7 2 16 -1 19 -3 4 -6 -2 -5 -13z"/>
<path d="M7783 7550 c27 -17 49 -75 41 -106 l-7 -27 -78 7 c-43 3 -129 2 -191
-4 -238 -21 -402 -29 -478 -23 -67 5 -83 10 -109 33 -16 15 -32 25 -35 23 -3
-3 -1 9 4 27 5 19 15 37 22 41 7 4 9 11 5 15 -10 10 -33 -13 -52 -52 -13 -28
-14 -41 -5 -69 16 -47 45 -82 89 -105 35 -17 58 -18 422 -13 349 5 387 7 421
24 107 54 82 209 -37 234 -26 5 -27 5 -12 -5z"/>
<path d="M7360 7033 c-63 -2 -124 -5 -135 -8 -14 -3 -32 -28 -55 -74 l-33 -70
28 -67 c16 -37 45 -84 65 -105 l37 -39 124 -1 c68 0 144 -2 169 -5 25 -2 142
-1 260 4 260 10 294 22 342 116 26 50 22 143 -8 184 -43 59 -63 62 -385 65
-162 1 -346 1 -409 0z m719 -107 c12 -11 21 -24 21 -30 0 -12 -732 -12 -818 0
-45 6 -66 29 -41 45 8 5 185 8 415 7 379 -3 403 -4 423 -22z"/>
<path d="M7332 6393 c-25 -5 -58 -53 -85 -121 -23 -59 -22 -69 19 -151 27 -54
42 -73 62 -78 15 -5 178 -8 362 -8 332 0 335 0 383 24 68 33 102 87 102 161
-1 75 -29 120 -97 154 l-52 26 -335 -1 c-185 -1 -346 -4 -359 -6z m739 -102
c20 -16 24 -28 23 -71 0 -39 -5 -56 -19 -66 -15 -11 -95 -14 -407 -14 l-388 0
-14 23 c-30 45 -21 122 17 137 12 5 189 9 393 9 352 1 373 0 395 -18z"/>
<path d="M7209 5759 c-15 -6 -36 -29 -52 -59 -36 -66 -36 -130 -1 -196 48 -92
29 -86 331 -96 147 -5 328 -8 401 -5 120 4 136 7 170 29 39 26 92 115 92 154
0 34 -29 106 -53 133 -46 50 -58 51 -474 50 -216 0 -399 -5 -414 -10z m814
-91 c45 -11 62 -41 53 -92 -13 -69 8 -66 -457 -66 l-419 0 0 23 c0 12 -11 31
-25 41 -28 21 -34 72 -12 95 9 10 101 12 417 10 223 -1 422 -6 443 -11z"/>
<path d="M2517 4121 c-151 -5 -170 -8 -183 -25 -22 -31 -17 -56 21 -97 l35
-39 0 -163 c2 -587 2 -589 -26 -629 -28 -40 -26 -64 5 -92 17 -15 49 -17 317
-14 l299 3 57 27 c77 36 150 106 178 171 53 121 9 286 -95 356 -38 26 -43 42
-19 62 8 7 27 36 41 63 71 140 -11 314 -170 361 -61 18 -237 24 -460 16z m362
-204 c71 -25 95 -105 52 -166 -30 -42 -76 -53 -206 -49 l-110 3 -3 112 -3 111
118 1 c67 0 133 -5 152 -12z m70 -421 c85 -39 85 -172 0 -213 -14 -7 -88 -13
-183 -15 l-159 -3 2 120 c1 66 5 123 7 127 7 11 306 -3 333 -16z"/>
<path d="M3855 4121 c-32 -14 -52 -42 -68 -96 -18 -61 -93 -247 -182 -455 -37
-85 -84 -196 -105 -246 -21 -51 -49 -109 -64 -130 -32 -48 -33 -78 -1 -109 18
-19 35 -25 69 -25 86 0 140 37 152 103 3 23 18 67 32 99 l25 58 197 0 c226 0
206 8 249 -105 50 -132 59 -140 156 -151 61 -7 97 9 117 51 9 20 6 31 -20 71
-17 25 -59 117 -93 203 -34 86 -97 239 -141 341 -172 402 -165 391 -249 396
-30 2 -63 0 -74 -5z m128 -469 c32 -74 57 -138 57 -143 0 -12 -237 -12 -245 1
-3 5 6 32 20 59 21 42 64 145 89 215 10 28 16 17 79 -132z"/>
<path d="M4735 4123 c-87 -3 -102 -6 -117 -24 -22 -27 -24 -119 -3 -157 28
-53 28 -52 70 -37 29 10 94 14 243 15 111 0 202 -3 202 -6 0 -4 -24 -32 -53
-64 -78 -84 -272 -328 -371 -465 -117 -164 -141 -240 -91 -290 28 -29 26 -29
509 -27 l280 1 30 30 c27 27 31 39 34 98 2 46 -1 74 -10 86 -12 17 -16 17 -50
2 -30 -12 -84 -15 -283 -15 -142 0 -245 4 -245 9 0 5 4 11 9 13 4 2 59 68 121
148 62 80 134 170 159 200 26 30 85 104 132 163 46 59 99 126 117 148 43 55
45 108 3 150 l-29 29 -279 -2 c-153 -1 -323 -4 -378 -5z"/>
<path d="M6042 4114 c-25 -17 -64 -88 -88 -161 -9 -26 -44 -115 -79 -198 -34
-82 -100 -240 -145 -350 -45 -110 -91 -209 -101 -221 -28 -30 -23 -62 13 -96
31 -28 36 -30 92 -25 80 7 109 30 120 93 4 27 19 74 32 104 l23 55 206 3 205
2 29 -62 c16 -35 37 -85 46 -111 24 -69 59 -88 149 -85 67 3 71 4 89 35 l19
33 -30 52 c-40 69 -216 472 -338 773 -62 153 -82 175 -161 175 -37 0 -67 -6
-81 -16z m134 -450 c28 -65 55 -129 58 -141 l7 -23 -126 0 -125 0 6 28 c4 15
29 75 55 134 27 59 49 112 49 119 0 6 6 9 12 7 7 -3 36 -58 64 -124z"/>
<path d="M6980 4122 c-144 -2 -156 -4 -172 -23 -25 -30 -23 -45 15 -84 l34
-35 6 -130 c4 -72 4 -249 0 -393 -5 -234 -8 -265 -25 -294 -18 -30 -18 -34 -3
-62 9 -17 27 -34 41 -37 45 -11 171 2 199 20 24 16 26 22 20 59 -13 88 -17
163 -10 224 l7 63 83 0 c84 0 84 0 112 -35 15 -19 57 -92 93 -162 81 -158 99
-173 206 -173 61 0 78 4 94 20 29 29 25 57 -19 114 -32 41 -171 287 -171 302
0 2 18 13 39 24 77 39 140 144 149 246 6 76 -21 159 -71 219 -37 45 -136 111
-186 124 -43 12 -226 17 -441 13z m393 -219 c45 -23 69 -70 64 -126 -5 -54
-27 -91 -77 -124 -30 -21 -45 -23 -151 -23 l-119 0 0 148 0 147 127 -4 c86 -2
137 -8 156 -18z"/>
<path d="M1882 3699 c-62 -40 -79 -113 -41 -176 27 -43 66 -63 124 -63 38 0
52 5 75 28 82 82 28 232 -83 232 -25 0 -55 -9 -75 -21z m93 -90 c4 -5 4 -21 1
-35 -5 -17 -13 -24 -30 -24 -25 0 -40 29 -29 56 6 16 49 19 58 3z"/>
<path d="M8009 3686 c-61 -42 -75 -119 -34 -183 35 -52 122 -65 182 -26 73 48
68 177 -9 219 -38 22 -99 17 -139 -10z m95 -85 c18 -20 13 -46 -11 -55 -23 -9
-43 12 -43 45 0 34 27 40 54 10z"/>
<path d="M3130 2863 c-36 -13 -40 -34 -40 -215 0 -227 -6 -218 153 -218 61 0
118 4 125 8 7 5 15 26 19 47 9 53 -11 65 -108 65 l-78 0 6 143 c6 143 6 144
-18 160 -24 18 -34 19 -59 10z"/>
<path d="M4646 2848 c-8 -13 -31 -59 -51 -103 -20 -44 -52 -111 -71 -150 -49
-100 -53 -129 -21 -150 38 -25 67 -16 90 28 17 32 23 37 55 37 21 0 54 3 74 6
36 6 38 5 54 -35 17 -44 44 -58 89 -47 54 14 46 57 -47 261 -67 145 -88 175
-130 175 -18 0 -33 -8 -42 -22z m93 -209 c9 -27 8 -29 -17 -29 -37 0 -72 11
-72 21 0 6 7 26 15 46 l15 36 25 -23 c13 -12 28 -35 34 -51z"/>
<path d="M5024 2845 c-21 -32 -36 -174 -32 -298 l3 -92 35 -18 c33 -16 36 -16
48 0 7 11 12 52 12 112 l0 96 30 -45 c18 -28 46 -53 76 -68 25 -13 47 -22 48
-20 2 2 11 23 20 48 21 55 43 90 56 90 6 0 10 -39 9 -94 0 -52 2 -100 6 -105
8 -13 84 -14 104 -2 12 8 12 21 3 80 -7 38 -12 120 -12 181 0 104 -1 112 -25
135 -60 60 -110 18 -172 -144 -9 -24 -10 -23 -32 22 -12 26 -43 69 -68 97 -52
57 -83 65 -109 25z"/>
<path d="M5579 2853 c-11 -12 -15 -63 -17 -202 -3 -177 -2 -188 17 -205 15
-14 29 -17 55 -12 57 11 58 18 57 218 -1 172 -3 184 -22 201 -27 22 -72 22
-90 0z"/>
<path d="M5840 2850 c-18 -18 -20 -33 -20 -189 0 -207 2 -211 106 -222 105
-12 198 -11 212 3 18 18 15 73 -5 90 -11 10 -47 17 -95 21 -43 3 -82 8 -88 12
-6 4 -10 57 -10 134 0 138 -5 154 -52 165 -20 5 -33 1 -48 -14z"/>
<path d="M6314 2858 c-21 -5 -34 -16 -37 -31 -3 -12 -7 -97 -8 -189 -3 -189 0
-198 62 -198 54 0 59 17 59 216 0 202 -7 221 -76 202z"/>
<path d="M3596 2838 c-14 -23 -120 -286 -136 -341 -7 -22 -5 -32 11 -48 32
-32 66 -25 88 20 18 35 24 39 73 44 94 12 97 11 114 -33 11 -27 24 -42 41 -46
28 -8 71 9 79 31 6 14 -60 168 -134 315 -38 74 -39 75 -80 78 -34 3 -43 -1
-56 -20z m90 -225 c-3 -3 -21 -2 -41 1 -29 6 -35 11 -30 24 4 9 12 30 18 46
l10 29 24 -47 c14 -27 22 -50 19 -53z"/>
<path d="M4153 2833 c-5 -16 -7 -102 -6 -191 2 -185 11 -216 61 -210 35 4 52
39 52 105 l0 52 83 3 82 3 3 32 c6 62 -9 73 -98 73 l-80 0 0 30 0 30 111 0
110 0 -3 48 -3 47 -152 3 -152 3 -8 -28z"/>
<path d="M6664 2850 c-14 -5 -42 -57 -91 -171 -92 -211 -90 -202 -56 -228 37
-30 64 -23 88 21 22 42 37 48 116 48 56 0 56 0 72 -40 17 -44 52 -60 93 -41
44 19 33 63 -72 282 -65 135 -68 139 -98 138 -17 0 -40 -4 -52 -9z m56 -192
l19 -43 -31 -3 c-17 -2 -34 0 -39 5 -10 10 10 83 23 83 5 0 18 -19 28 -42z"/>
<path d="M7519 2726 c-3 -4 -99 -7 -213 -7 l-206 0 -16 -24 c-18 -27 -12 -54
16 -80 17 -16 38 -18 182 -15 90 2 172 3 183 3 11 0 45 -3 76 -7 50 -7 59 -6
78 13 22 22 28 74 12 100 -9 14 -101 28 -112 17z"/>
<path d="M2417 2697 c-13 -13 -17 -27 -12 -45 11 -47 26 -51 179 -48 77 2 162
-1 187 -6 36 -7 55 -6 83 6 31 13 36 19 36 49 0 60 -9 62 -244 62 -191 0 -213
-2 -229 -18z"/>
<path d="M4441 2266 c-48 -17 -108 -71 -132 -119 -18 -34 -21 -54 -17 -117 8
-139 71 -207 201 -217 107 -8 199 55 227 156 14 52 12 133 -4 173 -21 50 -86
104 -147 122 -61 19 -82 19 -128 2z m157 -141 c25 -27 32 -43 32 -75 0 -22 -2
-40 -5 -40 -19 0 -87 45 -123 80 -25 25 -46 39 -54 35 -7 -4 0 5 16 20 40 37
88 30 134 -20z m-187 -48 c-10 -9 -11 -8 -5 6 3 10 9 15 12 12 3 -3 0 -11 -7
-18z m12 -117 l22 -25 -27 24 c-20 18 -28 33 -27 55 l2 31 4 -30 c3 -16 14
-41 26 -55z"/>
<path d="M4980 2271 c-54 -17 -91 -43 -124 -87 -46 -59 -60 -105 -53 -169 17
-168 174 -262 316 -191 110 56 154 164 120 291 -26 98 -170 185 -259 156z
m130 -140 c31 -30 46 -71 36 -96 -5 -15 -22 -11 -95 24 -17 8 -62 87 -54 95 4
3 24 6 45 6 30 0 46 -7 68 -29z"/>
<path d="M5465 2265 c-77 -42 -135 -134 -135 -215 0 -61 46 -155 98 -202 39
-35 46 -38 105 -38 74 0 132 24 169 68 92 110 70 282 -48 365 -52 36 -143 47
-189 22z m142 -128 c37 -25 58 -75 48 -114 l-6 -26 -25 34 c-13 18 -24 28 -24
22 0 -7 5 -15 10 -18 6 -3 10 -13 10 -21 0 -8 -4 -12 -10 -9 -5 3 -10 0 -10
-7 0 -9 -3 -9 -10 2 -8 12 -12 12 -18 2 -6 -9 -20 0 -49 32 -61 67 -62 81 -7
116 32 21 44 19 91 -13z m-112 -97 c3 -5 1 -10 -4 -10 -6 0 -11 5 -11 10 0 6
2 10 4 10 3 0 8 -4 11 -10z"/>
</g>
</svg>
