<?xml version="1.0" standalone="no"?>
<!DOCTYPE svg PUBLIC "-//W3C//DTD SVG 20010904//EN"
 "http://www.w3.org/TR/2001/REC-SVG-20010904/DTD/svg10.dtd">
<svg version="1.0" xmlns="http://www.w3.org/2000/svg"
 width="1400.000000pt" height="1050.000000pt" viewBox="0 0 1400.000000 1050.000000"
 preserveAspectRatio="xMidYMid meet">

<g transform="translate(0.000000,1050.000000) scale(0.100000,-0.100000)"
fill="#000000" stroke="none">
<path d="M6600 9439 c-618 -67 -1133 -267 -1618 -629 -144 -107 -402 -355
-519 -497 -369 -448 -596 -950 -689 -1523 -32 -193 -44 -583 -25 -787 49 -524
230 -1026 531 -1473 150 -223 415 -510 630 -683 110 -88 335 -238 475 -316
357 -198 868 -351 1170 -351 73 0 105 -4 107 -12 3 -9 54 -14 186 -16 l182 -4
97 33 c92 31 107 33 258 35 146 2 172 6 295 37 459 119 892 345 1255 657 110
95 309 299 391 400 391 484 634 1070 693 1674 14 140 14 477 0 626 -54 588
-293 1178 -668 1650 -90 113 -314 345 -426 440 -466 395 -1015 639 -1641 726
-131 18 -563 27 -684 13z m690 -269 c589 -90 1076 -315 1512 -697 476 -417
802 -984 927 -1613 72 -361 68 -816 -9 -1170 -90 -409 -268 -798 -516 -1125
-114 -151 -122 -160 -127 -155 -2 3 -14 59 -26 124 -53 287 -191 593 -381 845
-183 242 -466 478 -733 613 -97 48 -98 49 -83 71 315 438 310 1010 -13 1444
-372 499 -1094 621 -1618 273 -267 -177 -449 -445 -519 -766 -23 -108 -23
-358 0 -469 33 -154 107 -331 180 -435 18 -25 35 -50 39 -57 5 -8 -19 -26 -74
-54 -582 -292 -1015 -854 -1131 -1468 -13 -66 -25 -121 -29 -121 -3 0 -45 52
-95 116 -269 347 -454 747 -545 1174 -42 199 -51 286 -56 530 -6 272 7 434 53
660 89 435 299 878 582 1230 96 119 320 344 432 434 47 37 148 110 225 161
405 270 840 423 1350 475 146 14 500 4 655 -20z m-170 -1469 c180 -47 323
-133 458 -276 123 -130 190 -254 234 -433 29 -121 29 -324 0 -434 -89 -332
-310 -572 -624 -681 -179 -62 -417 -64 -592 -6 -361 120 -613 428 -657 802
-53 464 252 907 706 1025 112 29 125 31 265 27 89 -2 149 -9 210 -24z m-909
-1919 c355 -244 816 -275 1204 -82 66 32 146 79 179 104 67 51 55 52 202 -20
206 -101 437 -278 586 -448 154 -177 297 -422 367 -631 44 -132 80 -325 83
-445 l3 -103 -70 -60 c-318 -270 -689 -469 -1085 -582 -479 -136 -989 -146
-1480 -30 -430 103 -874 332 -1209 624 l-64 56 7 97 c44 643 442 1223 1041
1521 136 67 136 67 156 53 9 -6 45 -31 80 -54z"/>
<path d="M9835 3836 c-95 -44 -151 -138 -143 -241 21 -254 337 -331 471 -114
129 210 -102 461 -328 355z"/>
<path d="M2200 3141 c0 -753 1 -780 49 -915 66 -188 223 -329 432 -385 116
-32 278 -44 411 -32 324 31 533 170 620 416 52 146 53 158 53 915 l0 705 -227
3 -227 2 -3 -667 c-3 -657 -4 -669 -25 -733 -40 -116 -101 -168 -227 -191
-124 -23 -269 16 -325 87 -31 40 -59 125 -71 216 -6 49 -10 328 -10 685 l0
603 -225 0 -225 0 0 -709z"/>
<path d="M4462 3119 c-204 -26 -351 -119 -401 -255 -31 -80 -29 -211 3 -279
42 -90 155 -176 316 -240 173 -68 202 -94 180 -161 -15 -44 -78 -69 -152 -61
-56 7 -171 57 -243 107 l-44 31 -24 -38 c-13 -21 -52 -86 -86 -145 l-63 -108
29 -25 c35 -31 127 -76 211 -104 96 -31 250 -45 363 -32 239 27 364 96 433
241 29 60 31 73 31 170 0 93 -3 112 -27 162 -46 99 -165 189 -308 233 -92 29
-185 64 -208 81 -31 22 -31 88 1 108 57 36 186 26 314 -24 l74 -28 69 139 70
139 -28 14 c-49 25 -165 57 -262 71 -103 16 -151 17 -248 4z"/>
<path d="M7290 3120 c-148 -20 -238 -65 -346 -174 -126 -126 -179 -250 -190
-441 -20 -323 161 -597 450 -680 36 -11 95 -17 155 -18 154 0 262 36 374 128
l57 46 0 -70 0 -71 210 0 210 0 0 625 0 625 -215 0 -215 0 0 -55 c0 -59 -7
-66 -35 -35 -75 83 -299 142 -455 120z m344 -394 c131 -64 187 -209 140 -366
-23 -76 -100 -153 -179 -176 -146 -42 -300 19 -362 145 -25 51 -26 222 0 268
40 74 105 127 187 154 48 16 156 3 214 -25z"/>
<path d="M9260 3120 c-103 -18 -184 -65 -267 -153 l-53 -56 0 90 0 89 -215 0
-215 0 0 -625 0 -625 215 0 214 0 3 363 3 362 27 51 c30 57 75 99 128 122 57
24 202 12 267 -21 l53 -27 90 180 90 180 -38 18 c-92 47 -215 68 -302 52z"/>
<path d="M11013 3120 c-329 -36 -589 -262 -634 -551 -43 -278 84 -535 331
-672 164 -90 444 -117 655 -62 191 50 356 179 436 340 159 321 35 689 -287
857 -143 75 -327 107 -501 88z m208 -377 c70 -23 149 -99 172 -167 22 -63 22
-159 0 -221 -24 -72 -103 -149 -172 -169 -150 -44 -299 13 -363 139 -29 55
-36 176 -14 242 49 149 218 227 377 176z"/>
<path d="M5213 2673 c3 -345 7 -429 21 -481 49 -192 163 -304 361 -356 99 -26
301 -39 424 -27 308 31 460 137 527 366 15 52 18 119 21 488 l5 427 -216 0
-215 0 -3 -367 c-4 -312 -7 -376 -21 -419 -35 -107 -96 -148 -222 -148 -113
-1 -169 27 -208 104 -39 78 -46 160 -47 518 l0 312 -216 0 -216 0 5 -417z"/>
<path d="M9720 2465 l0 -625 215 0 215 0 0 625 0 625 -215 0 -215 0 0 -625z"/>
</g>
</svg>
